<svg width="22" height="17" viewBox="0 0 22 17" fill="none" xmlns="http://www.w3.org/2000/svg">
<path d="M17.9861 1.0843C18.3412 0.746232 18.8137 0.559333 19.304 0.563042C19.7943 0.566752 20.264 0.760782 20.6139 1.10419C20.9638 1.44759 21.1667 1.91352 21.1797 2.40364C21.1926 2.89377 21.0147 3.36976 20.6834 3.73118L10.6252 16.3101C10.4523 16.4964 10.2435 16.6459 10.0115 16.7497C9.77944 16.8535 9.52885 16.9094 9.2747 16.9141C9.02055 16.9188 8.76806 16.8722 8.53232 16.7771C8.29659 16.682 8.08246 16.5403 7.90273 16.3606L1.2326 9.69043C1.04685 9.51734 0.897865 9.30862 0.794531 9.0767C0.691197 8.84479 0.635633 8.59443 0.631154 8.34058C0.626675 8.08672 0.673373 7.83457 0.768461 7.59915C0.86355 7.36374 1.00508 7.14988 1.18461 6.97035C1.36414 6.79082 1.57799 6.64929 1.81341 6.5542C2.04883 6.45912 2.30098 6.41242 2.55484 6.4169C2.80869 6.42137 3.05905 6.47694 3.29096 6.58027C3.52288 6.68361 3.7316 6.83259 3.90469 7.01835L9.18331 12.2944L17.9382 1.13976C17.9539 1.12035 17.9708 1.10184 17.9886 1.0843H17.9861Z" fill="white"/>
</svg>
