<svg width="14" height="11" viewBox="0 0 14 11" fill="none" xmlns="http://www.w3.org/2000/svg">
<path d="M11.2649 0.417165C11.4909 0.202029 11.7916 0.0830925 12.1036 0.0854532C12.4156 0.0878139 12.7145 0.211287 12.9372 0.429818C13.1599 0.64835 13.289 0.944846 13.2972 1.25674C13.3055 1.56864 13.1922 1.87155 12.9814 2.10154L6.58076 10.1063C6.4707 10.2249 6.33786 10.32 6.19019 10.386C6.04253 10.4521 5.88306 10.4877 5.72133 10.4907C5.5596 10.4936 5.39892 10.464 5.24891 10.4035C5.0989 10.343 4.96263 10.2528 4.84826 10.1384L0.603631 5.89379C0.485425 5.78364 0.390616 5.65082 0.324858 5.50324C0.2591 5.35565 0.223741 5.19634 0.22089 5.0348C0.21804 4.87325 0.247757 4.71279 0.308268 4.56298C0.368779 4.41317 0.458844 4.27708 0.573091 4.16283C0.687338 4.04859 0.823425 3.95852 0.973235 3.89801C1.12305 3.8375 1.28351 3.80778 1.44505 3.81063C1.6066 3.81348 1.76591 3.84884 1.91349 3.9146C2.06108 3.98036 2.1939 4.07517 2.30405 4.19337L5.66317 7.55089L11.2344 0.452457C11.2445 0.440106 11.2552 0.428324 11.2665 0.417165H11.2649Z" fill="white"/>
</svg>
