<svg width="16" height="15" viewBox="0 0 16 15" fill="none" xmlns="http://www.w3.org/2000/svg">
<path d="M10.7221 4.66613C10.8512 4.5432 11.0231 4.47523 11.2014 4.47658C11.3797 4.47793 11.5504 4.54849 11.6777 4.67336C11.8049 4.79824 11.8787 4.96766 11.8834 5.14589C11.8881 5.32412 11.8234 5.49721 11.703 5.62863L8.04545 10.2028C7.98256 10.2705 7.90665 10.3249 7.82227 10.3626C7.73789 10.4004 7.64676 10.4207 7.55435 10.4224C7.46193 10.4241 7.37011 10.4072 7.28439 10.3726C7.19867 10.338 7.12081 10.2865 7.05545 10.2211L4.62995 7.79563C4.5624 7.73269 4.50823 7.65679 4.47065 7.57246C4.43307 7.48813 4.41287 7.39709 4.41124 7.30478C4.40961 7.21247 4.42659 7.12077 4.46117 7.03517C4.49575 6.94956 4.54721 6.8718 4.6125 6.80651C4.67778 6.74123 4.75555 6.68976 4.84115 6.65519C4.92676 6.62061 5.01845 6.60363 5.11076 6.60526C5.20307 6.60688 5.29411 6.62709 5.37844 6.66467C5.46278 6.70224 5.53868 6.75642 5.60162 6.82397L7.52112 8.74255L10.7047 4.6863C10.7104 4.67924 10.7166 4.67251 10.723 4.66613H10.7221Z" fill="white"/>
</svg>
