<svg width="8" height="7" viewBox="0 0 8 7" fill="none" xmlns="http://www.w3.org/2000/svg">
<path d="M6.72309 0.666864C6.85222 0.543929 7.02406 0.475966 7.20234 0.477315C7.38063 0.478664 7.55141 0.54922 7.67867 0.674095C7.80592 0.79897 7.87969 0.968396 7.8844 1.14662C7.88911 1.32485 7.8244 1.49794 7.70393 1.62936L4.04643 6.20353C3.98353 6.27127 3.90763 6.32563 3.82325 6.36337C3.73887 6.4011 3.64774 6.42143 3.55532 6.42314C3.4629 6.42485 3.37109 6.40791 3.28537 6.37333C3.19965 6.33874 3.12178 6.28723 3.05643 6.22186L0.630925 3.79636C0.563379 3.73342 0.509202 3.65752 0.471626 3.57319C0.43405 3.48886 0.413845 3.39782 0.412216 3.30551C0.410588 3.2132 0.427569 3.12151 0.462146 3.0359C0.496724 2.95029 0.54819 2.87253 0.613474 2.80725C0.678758 2.74196 0.756522 2.6905 0.842128 2.65592C0.927733 2.62134 1.01943 2.60436 1.11174 2.60599C1.20405 2.60762 1.29509 2.62782 1.37942 2.6654C1.46375 2.70297 1.53965 2.75715 1.60259 2.8247L3.52209 4.74328L6.70568 0.687031C6.71141 0.679974 6.71753 0.673241 6.72401 0.666864H6.72309Z" fill="white"/>
</svg>
