<svg width="8" height="8" viewBox="0 0 8 8" fill="none" xmlns="http://www.w3.org/2000/svg">
<path d="M1.35392 0.645917L1.38928 0.610568L1.3893 0.610585C1.3893 0.610592 1.38931 0.610599 1.38932 0.610606L3.99992 3.22219L6.61055 0.610568L6.61056 0.610562C6.66169 0.559431 6.72239 0.518871 6.7892 0.4912C6.856 0.463528 6.92761 0.449285 6.99992 0.449285C7.07223 0.449285 7.14383 0.463528 7.21063 0.4912C7.27744 0.518871 7.33814 0.559431 7.38927 0.610562C7.4404 0.661692 7.48096 0.722393 7.50863 0.789199C7.53631 0.856005 7.55055 0.927607 7.55055 0.999917C7.55055 1.07223 7.53631 1.14383 7.50863 1.21063C7.48096 1.27744 7.4404 1.33814 7.38927 1.38927L7.38927 1.38928L4.77764 3.99992L7.38927 6.61055L7.38927 6.61056C7.4404 6.66169 7.48096 6.72239 7.50863 6.7892C7.53631 6.85601 7.55055 6.92761 7.55055 6.99992C7.55055 7.07223 7.53631 7.14383 7.50863 7.21063C7.48096 7.27744 7.4404 7.33814 7.38927 7.38927C7.33814 7.4404 7.27744 7.48096 7.21063 7.50863C7.14383 7.53631 7.07223 7.55055 6.99992 7.55055C6.92761 7.55055 6.85601 7.53631 6.7892 7.50863C6.72239 7.48096 6.66169 7.4404 6.61056 7.38927L6.61055 7.38927L3.99992 4.77764L1.38928 7.38927L1.38927 7.38927C1.33814 7.4404 1.27744 7.48096 1.21063 7.50863C1.14383 7.53631 1.07223 7.55055 0.999917 7.55055C0.927607 7.55055 0.856005 7.53631 0.789199 7.50863C0.722393 7.48096 0.661692 7.4404 0.610562 7.38927C0.559431 7.33814 0.518871 7.27744 0.4912 7.21063C0.463528 7.14383 0.449285 7.07223 0.449285 6.99992C0.449285 6.92761 0.463528 6.856 0.4912 6.7892C0.518871 6.72239 0.559431 6.66169 0.610562 6.61056L0.610568 6.61055L3.22219 3.99992L0.610606 1.38932L0.645917 1.35392L0.610568 1.38928L0.610585 1.3893C0.559375 1.33821 0.518746 1.27752 0.491022 1.21071C0.463295 1.14389 0.449023 1.07226 0.449023 0.999917C0.449023 0.927573 0.463295 0.85594 0.491022 0.78912C0.51875 0.7223 0.559387 0.661607 0.610606 0.610517L0.645917 0.645917C0.692363 0.599354 0.747538 0.562411 0.808283 0.537204C0.869028 0.511998 0.93415 0.499023 0.999917 0.499023C1.06568 0.499023 1.13081 0.511998 1.19155 0.537204C1.2523 0.562411 1.30747 0.599354 1.35392 0.645917ZM1.35392 0.645917L3.96457 3.25756L1.35392 0.645917Z" fill="white" stroke="white" stroke-width="0.1"/>
</svg>
