<svg width="12" height="10" viewBox="0 0 12 10" fill="none" xmlns="http://www.w3.org/2000/svg">
<path d="M10.0846 0.501151C10.2783 0.316748 10.5361 0.214803 10.8035 0.216826C11.0709 0.21885 11.3271 0.324684 11.518 0.511997C11.7089 0.699309 11.8195 0.953449 11.8266 1.22079C11.8337 1.48813 11.7366 1.74776 11.5559 1.9449L6.06964 8.80615C5.9753 8.90776 5.86144 8.9893 5.73487 9.0459C5.6083 9.10251 5.47161 9.133 5.33298 9.13557C5.19436 9.13814 5.05664 9.11272 4.92805 9.06085C4.79947 9.00897 4.68267 8.9317 4.58464 8.83365L0.946388 5.1954C0.845069 5.10099 0.763803 4.98714 0.707439 4.86064C0.651075 4.73414 0.620768 4.59759 0.618325 4.45912C0.615881 4.32065 0.641353 4.18311 0.69322 4.0547C0.745086 3.9263 0.822285 3.80965 0.920211 3.71172C1.01814 3.6138 1.13478 3.5366 1.26319 3.48473C1.3916 3.43287 1.52914 3.40739 1.66761 3.40984C1.80607 3.41228 1.94263 3.44259 2.06913 3.49895C2.19563 3.55532 2.30948 3.63658 2.40389 3.7379L5.28314 6.61578L10.0585 0.531401C10.0671 0.520815 10.0763 0.510716 10.086 0.501151H10.0846Z" fill="white"/>
</svg>
