<svg width="12" height="12" viewBox="0 0 12 12" fill="none" xmlns="http://www.w3.org/2000/svg">
<path d="M4.86816 6.00134L0.933038 9.93498L0.933032 9.93498C0.858657 10.0094 0.799659 10.0977 0.759408 10.1948C0.719157 10.292 0.69844 10.3962 0.69844 10.5013C0.69844 10.6065 0.719157 10.7107 0.759408 10.8078C0.79966 10.905 0.858657 10.9933 0.933032 11.0677C1.00741 11.1421 1.0957 11.2011 1.19288 11.2413C1.29005 11.2816 1.39421 11.3023 1.49939 11.3023C1.60457 11.3023 1.70872 11.2816 1.8059 11.2413C1.90307 11.2011 1.99137 11.1421 2.06574 11.0677L2.06575 11.0677L5.99939 7.13256L9.93302 11.0677L9.93303 11.0677C10.0074 11.1421 10.0957 11.2011 10.1929 11.2413C10.2901 11.2816 10.3942 11.3023 10.4994 11.3023C10.6046 11.3023 10.7087 11.2816 10.8059 11.2413C10.9031 11.2011 10.9914 11.1421 11.0657 11.0677C11.1401 10.9933 11.1991 10.905 11.2394 10.8078C11.2796 10.7107 11.3003 10.6065 11.3003 10.5013C11.3003 10.3962 11.2796 10.292 11.2394 10.1948C11.1991 10.0977 11.1401 10.0094 11.0657 9.93498L11.0657 9.93498L7.13061 6.00134L11.0657 2.0677L11.0657 2.0677C11.1401 1.99332 11.1991 1.90503 11.2394 1.80785C11.2796 1.71067 11.3003 1.60652 11.3003 1.50134C11.3003 1.39616 11.2796 1.29201 11.2394 1.19483C11.1991 1.09766 11.1401 1.00936 11.0657 0.934985C10.9914 0.86061 10.9031 0.801613 10.8059 0.761361C10.7087 0.72111 10.6046 0.700393 10.4994 0.700393C10.3942 0.700393 10.2901 0.72111 10.1929 0.761361C10.0957 0.801613 10.0074 0.86061 9.93303 0.934985L9.93302 0.934992L5.99939 4.87012L2.06579 0.93503C1.99147 0.860528 1.90319 0.80142 1.806 0.761089C1.70881 0.720759 1.60461 0.7 1.49939 0.7C1.39416 0.7 1.28997 0.720759 1.19277 0.761089C1.09558 0.80142 1.0073 0.860528 0.932987 0.93503L0.968387 0.97034L0.933076 0.93494C0.858575 1.00925 0.799467 1.09753 0.759136 1.19473C0.718806 1.29192 0.698047 1.39611 0.698047 1.50134C0.698047 1.60657 0.718806 1.71076 0.759136 1.80795C0.799467 1.90515 0.858575 1.99343 0.933076 2.06774L4.86816 6.00134Z" fill="white" stroke="white" stroke-width="0.1"/>
</svg>
