<svg width="18" height="18" viewBox="0 0 18 18" fill="none" xmlns="http://www.w3.org/2000/svg">
<path d="M4.5 3.375C3.90326 3.375 3.33097 3.61205 2.90901 4.03401C2.48705 4.45597 2.25 5.02826 2.25 5.625V5.85113L9 9.486L15.75 5.85225V5.625C15.75 5.02826 15.5129 4.45597 15.091 4.03401C14.669 3.61205 14.0967 3.375 13.5 3.375H4.5ZM15.75 7.12912L9.26663 10.62C9.18468 10.6641 9.09307 10.6872 9 10.6872C8.90693 10.6872 8.81532 10.6641 8.73338 10.62L2.25 7.12912V12.375C2.25 12.9717 2.48705 13.544 2.90901 13.966C3.33097 14.3879 3.90326 14.625 4.5 14.625H13.5C14.0967 14.625 14.669 14.3879 15.091 13.966C15.5129 13.544 15.75 12.9717 15.75 12.375V7.12912Z" fill="#7AC1EB"/>
</svg>
