<svg width="18" height="18" viewBox="0 0 18 18" fill="none" xmlns="http://www.w3.org/2000/svg">
<path d="M14.9997 8.24925H16.4997C16.4997 4.40175 13.5949 1.5 9.74219 1.5V3C12.7887 3 14.9997 5.20725 14.9997 8.24925Z" fill="#7AC1EB"/>
<path d="M9.75021 6.00164C11.3275 6.00164 12.0002 6.67439 12.0002 8.25164H13.5002C13.5002 5.83289 12.169 4.50164 9.75021 4.50164V6.00164ZM12.3167 10.0839C12.1726 9.95291 11.9832 9.88305 11.7886 9.88907C11.5939 9.89508 11.4092 9.97651 11.2735 10.1161L9.47871 11.9619C9.04671 11.8794 8.17821 11.6086 7.28421 10.7169C6.39021 9.82214 6.11946 8.95139 6.03921 8.52239L7.88346 6.72689C8.02327 6.59124 8.10481 6.40651 8.11083 6.2118C8.11685 6.01709 8.04688 5.82767 7.91571 5.68364L5.14446 2.63639C5.01324 2.49191 4.83087 2.40427 4.63608 2.39209C4.44128 2.37991 4.24941 2.44414 4.10121 2.57114L2.47371 3.96689C2.34404 4.09703 2.26665 4.27023 2.25621 4.45364C2.24496 4.64114 2.03046 9.08264 5.47446 12.5281C8.47896 15.5319 12.2425 15.7516 13.279 15.7516C13.4305 15.7516 13.5235 15.7471 13.5482 15.7456C13.7316 15.7354 13.9047 15.6576 14.0342 15.5274L15.4292 13.8991C15.5563 13.751 15.6207 13.5592 15.6086 13.3644C15.5966 13.1696 15.5091 12.9872 15.3647 12.8559L12.3167 10.0839Z" fill="#7AC1EB"/>
</svg>
