<svg width="27" height="17" viewBox="0 0 27 17" fill="none" xmlns="http://www.w3.org/2000/svg">
<path fill-rule="evenodd" clip-rule="evenodd" d="M8.03199 0.776756C6.68946 0.92844 5.88079 1.13946 4.92951 1.58631C3.9995 2.02319 3.3635 2.45263 2.62477 3.1425C1.51628 4.1777 0.791486 5.32557 0.352626 6.74101C0.0473423 7.72546 0.0379785 7.84369 0.0107895 11.0522C-0.0116048 13.6924 -0.00365114 14.0935 0.078085 14.4426C0.342698 15.5728 1.2154 16.4543 2.41978 16.8078C2.70413 16.8913 3.41838 16.9001 11.1204 16.9147L19.5112 16.9308V15.9648V14.9989H23.3469H25.4375V15.9648H26.8125V13.3909H26.125H24.75H24.1931H19.5112V12.4261V11.4613H18.5016H17.492L17.463 9.73278C17.4329 7.94483 17.4007 7.64736 17.1424 6.7729C17.0775 6.55304 16.9493 6.20014 16.8575 5.9887C16.7658 5.7773 16.6907 5.59962 16.6907 5.59389C16.6907 5.5881 17.008 5.44317 17.3958 5.27176C17.7836 5.10035 18.1006 4.9335 18.1002 4.90102C18.0989 4.80797 17.6676 4.07774 17.3529 3.63593C16.7291 2.76007 15.8053 1.83051 14.9458 1.2138L14.5265 0.912896L14.4331 1.02824C14.3817 1.0917 14.1827 1.36666 13.9907 1.63937C13.7988 1.91203 13.6334 2.13516 13.6231 2.13516C13.6128 2.13516 13.383 2.01408 13.1123 1.86604C11.7621 1.12783 10.2212 0.73243 8.7653 0.750599C8.45506 0.754459 8.12506 0.76625 8.03199 0.776756ZM9.90182 2.45917C12.5901 2.85837 14.8662 4.85422 15.5588 7.41984C15.7489 8.12375 15.7872 8.71306 15.7877 10.9375L15.7882 13.0668L16.7894 13.0815L17.7907 13.0961L17.806 14.1815L17.8212 15.2668L10.36 15.2663L2.8988 15.2658L2.61676 15.1389C2.26832 14.9821 2.01381 14.733 1.84402 14.3825L1.71422 14.1145L1.71591 11.1933C1.7176 8.3569 1.72138 8.25592 1.84616 7.70943C2.65647 4.16082 6.12735 1.89868 9.90182 2.45917ZM7.84093 4.46912C6.79822 4.68405 5.97409 5.12029 5.28342 5.82291C4.74895 6.36667 4.27117 7.22956 4.10538 7.95062C3.98935 8.4552 4.01676 9.47594 4.16004 9.98737C4.60381 11.5715 5.92016 12.8217 7.58072 13.2362C8.22006 13.3957 9.26689 13.3957 9.89348 13.2362C11.0871 12.9321 12.0654 12.2648 12.7016 11.3205C13.6786 9.87037 13.7235 8.08065 12.8198 6.61066C12.3035 5.77098 11.2556 4.94229 10.3464 4.65484C9.49427 4.3854 8.57695 4.31738 7.84093 4.46912ZM9.37209 6.0729C10.5803 6.31613 11.5607 7.31896 11.7382 8.49283C11.9389 9.821 11.0689 11.1489 9.70197 11.6006C9.37181 11.7097 9.18431 11.7362 8.74624 11.736C7.85836 11.7354 7.21542 11.478 6.59075 10.8727C5.99011 10.2907 5.73255 9.69376 5.73469 8.8886C5.737 8.01966 6.05312 7.34399 6.73284 6.75489C7.46836 6.11749 8.3991 5.87694 9.37209 6.0729Z" fill="white"/>
</svg>
