<svg width="19" height="19" viewBox="0 0 19 19" fill="none" xmlns="http://www.w3.org/2000/svg">
<mask id="path-1-outside-1_257_189" maskUnits="userSpaceOnUse" x="-0.00976562" y="0.0117188" width="19" height="19" fill="black">
<rect fill="white" x="-0.00976562" y="0.0117188" width="19" height="19"/>
<path d="M12.3873 7.36177L16.9571 2.82004L16.9422 5.39448C16.9374 5.60911 17.1077 5.79584 17.3226 5.79106L17.5951 5.79079C17.81 5.78575 17.9877 5.65798 17.9922 5.44336L18.0034 1.60826C18.0034 1.60456 17.9888 1.60164 17.9888 1.59792L18.0098 1.40348C18.0119 1.29564 17.9867 1.19948 17.9171 1.1307C17.8483 1.06137 17.7519 1.01914 17.6448 1.02206L17.4506 1.02658C17.4469 1.02658 17.444 1.02791 17.44 1.02845L13.6302 1.01172C13.4156 1.0165 13.2379 1.19394 13.2331 1.40883L13.2325 1.68138C13.2652 1.93452 13.4642 2.08247 13.6788 2.07769L16.1897 2.08433L11.6361 6.61031C11.4287 6.81777 11.4287 7.15405 11.6361 7.36177C11.8436 7.56895 12.1799 7.56895 12.3873 7.36177ZM6.62961 11.6388L2.05981 16.1664L2.07442 13.606C2.07947 13.3911 1.90892 13.2044 1.69429 13.2092L1.40505 13.2097C1.18989 13.215 1.01244 13.3425 1.00792 13.5574L0.996763 17.3925C0.996763 17.3962 1.01137 17.3986 1.01137 17.4028L0.990388 17.5967C0.987998 17.7046 1.01323 17.8013 1.08309 17.8696C1.15162 17.9392 1.24831 17.9811 1.35509 17.9785L1.54953 17.9737C1.55323 17.9737 1.55589 17.9721 1.56015 17.9721L5.38673 17.9888C5.60136 17.9835 5.77881 17.8061 5.78384 17.5914L5.78437 17.3187C5.75172 17.066 5.55275 16.9176 5.33812 16.9223L2.82719 16.9157L7.38053 12.3902C7.58798 12.1828 7.58798 11.8465 7.38053 11.6391C7.17308 11.4316 6.83704 11.4313 6.62959 11.6388H6.62961ZM18.0037 17.3922L17.9925 13.5571C17.9878 13.3422 17.8101 13.2147 17.5954 13.2094L17.3229 13.2089C17.108 13.2041 16.938 13.3911 16.9425 13.6057L16.9574 16.1801L12.3873 11.6387C12.1799 11.4313 11.8436 11.4313 11.6361 11.6387C11.4287 11.8462 11.4287 12.1825 11.6361 12.3899L16.1895 16.9154L13.6788 16.922C13.4642 16.9172 13.2652 17.0657 13.2325 17.3183L13.2331 17.5911C13.2381 17.806 13.4158 17.9835 13.6302 17.9885L17.4403 17.9718C17.4443 17.9718 17.4472 17.9734 17.4509 17.9734L17.6451 17.9781C17.7522 17.9808 17.8488 17.9388 17.9174 17.8692C17.987 17.8007 18.0119 17.7043 18.0101 17.5964L17.9891 17.4025C17.9891 17.3983 18.0037 17.3959 18.0037 17.3922L18.0037 17.3922ZM2.8272 2.08474L5.33842 2.07815C5.55305 2.08293 5.752 1.93472 5.78467 1.68182L5.78414 1.40904C5.77881 1.19417 5.60134 1.01645 5.38701 1.01193L1.56015 1.0284C1.5559 1.02787 1.55325 1.02654 1.54953 1.02654L1.35509 1.02201C1.24833 1.01911 1.15137 1.06134 1.08309 1.13065C1.01323 1.19945 0.988014 1.29561 0.990388 1.40345L1.01137 1.59789C1.01137 1.60159 0.996763 1.60426 0.996763 1.60825L1.00792 5.44334C1.0127 5.65796 1.19015 5.78573 1.40505 5.79078L1.69431 5.79103C1.90894 5.79581 2.07919 5.60907 2.0744 5.39445L2.05979 2.83409L6.62961 7.36167C6.83679 7.56914 7.17336 7.56914 7.38083 7.36167C7.5883 7.1542 7.58828 6.81767 7.38083 6.61021L2.8272 2.08474Z"/>
</mask>
<path d="M12.3873 7.36177L16.9571 2.82004L16.9422 5.39448C16.9374 5.60911 17.1077 5.79584 17.3226 5.79106L17.5951 5.79079C17.81 5.78575 17.9877 5.65798 17.9922 5.44336L18.0034 1.60826C18.0034 1.60456 17.9888 1.60164 17.9888 1.59792L18.0098 1.40348C18.0119 1.29564 17.9867 1.19948 17.9171 1.1307C17.8483 1.06137 17.7519 1.01914 17.6448 1.02206L17.4506 1.02658C17.4469 1.02658 17.444 1.02791 17.44 1.02845L13.6302 1.01172C13.4156 1.0165 13.2379 1.19394 13.2331 1.40883L13.2325 1.68138C13.2652 1.93452 13.4642 2.08247 13.6788 2.07769L16.1897 2.08433L11.6361 6.61031C11.4287 6.81777 11.4287 7.15405 11.6361 7.36177C11.8436 7.56895 12.1799 7.56895 12.3873 7.36177ZM6.62961 11.6388L2.05981 16.1664L2.07442 13.606C2.07947 13.3911 1.90892 13.2044 1.69429 13.2092L1.40505 13.2097C1.18989 13.215 1.01244 13.3425 1.00792 13.5574L0.996763 17.3925C0.996763 17.3962 1.01137 17.3986 1.01137 17.4028L0.990388 17.5967C0.987998 17.7046 1.01323 17.8013 1.08309 17.8696C1.15162 17.9392 1.24831 17.9811 1.35509 17.9785L1.54953 17.9737C1.55323 17.9737 1.55589 17.9721 1.56015 17.9721L5.38673 17.9888C5.60136 17.9835 5.77881 17.8061 5.78384 17.5914L5.78437 17.3187C5.75172 17.066 5.55275 16.9176 5.33812 16.9223L2.82719 16.9157L7.38053 12.3902C7.58798 12.1828 7.58798 11.8465 7.38053 11.6391C7.17308 11.4316 6.83704 11.4313 6.62959 11.6388H6.62961ZM18.0037 17.3922L17.9925 13.5571C17.9878 13.3422 17.8101 13.2147 17.5954 13.2094L17.3229 13.2089C17.108 13.2041 16.938 13.3911 16.9425 13.6057L16.9574 16.1801L12.3873 11.6387C12.1799 11.4313 11.8436 11.4313 11.6361 11.6387C11.4287 11.8462 11.4287 12.1825 11.6361 12.3899L16.1895 16.9154L13.6788 16.922C13.4642 16.9172 13.2652 17.0657 13.2325 17.3183L13.2331 17.5911C13.2381 17.806 13.4158 17.9835 13.6302 17.9885L17.4403 17.9718C17.4443 17.9718 17.4472 17.9734 17.4509 17.9734L17.6451 17.9781C17.7522 17.9808 17.8488 17.9388 17.9174 17.8692C17.987 17.8007 18.0119 17.7043 18.0101 17.5964L17.9891 17.4025C17.9891 17.3983 18.0037 17.3959 18.0037 17.3922L18.0037 17.3922ZM2.8272 2.08474L5.33842 2.07815C5.55305 2.08293 5.752 1.93472 5.78467 1.68182L5.78414 1.40904C5.77881 1.19417 5.60134 1.01645 5.38701 1.01193L1.56015 1.0284C1.5559 1.02787 1.55325 1.02654 1.54953 1.02654L1.35509 1.02201C1.24833 1.01911 1.15137 1.06134 1.08309 1.13065C1.01323 1.19945 0.988014 1.29561 0.990388 1.40345L1.01137 1.59789C1.01137 1.60159 0.996763 1.60426 0.996763 1.60825L1.00792 5.44334C1.0127 5.65796 1.19015 5.78573 1.40505 5.79078L1.69431 5.79103C1.90894 5.79581 2.07919 5.60907 2.0744 5.39445L2.05979 2.83409L6.62961 7.36167C6.83679 7.56914 7.17336 7.56914 7.38083 7.36167C7.5883 7.1542 7.58828 6.81767 7.38083 6.61021L2.8272 2.08474Z" fill="#2F3645"/>
<path d="M12.3873 7.36177L12.1758 7.14898L12.1753 7.14951L12.3873 7.36177ZM16.9571 2.82004L17.2571 2.82178L17.2613 2.09476L16.7456 2.60726L16.9571 2.82004ZM16.9422 5.39448L17.2422 5.40119L17.2422 5.39621L16.9422 5.39448ZM17.3226 5.79106L17.3223 5.49099L17.3159 5.49113L17.3226 5.79106ZM17.5951 5.79079L17.5954 6.09087L17.6022 6.09071L17.5951 5.79079ZM17.9922 5.44336L18.2922 5.44967L18.2922 5.44423L17.9922 5.44336ZM18.0034 1.60826L18.3034 1.60914V1.60826H18.0034ZM17.9888 1.59792L17.6905 1.56573L17.6888 1.58178V1.59792H17.9888ZM18.0098 1.40348L18.308 1.43568L18.3095 1.42257L18.3097 1.40939L18.0098 1.40348ZM17.9171 1.1307L17.7041 1.342L17.7062 1.3441L17.9171 1.1307ZM17.6448 1.02206L17.6518 1.32198L17.653 1.32195L17.6448 1.02206ZM17.4506 1.02658V1.32666L17.4576 1.3265L17.4506 1.02658ZM17.44 1.02845L17.4387 1.32845L17.4598 1.32854L17.4807 1.32568L17.44 1.02845ZM13.6302 1.01172L13.6315 0.711615L13.6235 0.711793L13.6302 1.01172ZM13.2331 1.40883L12.9331 1.40215L12.9331 1.40824L13.2331 1.40883ZM13.2325 1.68138L12.9325 1.68079L12.9325 1.70036L12.935 1.71976L13.2325 1.68138ZM13.6788 2.07769L13.6796 1.7776L13.6721 1.77776L13.6788 2.07769ZM16.1897 2.08433L16.4012 2.29711L16.9152 1.78625L16.1905 1.78433L16.1897 2.08433ZM11.6361 6.61031L11.4246 6.39754L11.424 6.39818L11.6361 6.61031ZM11.6361 7.36177L11.4239 7.57376L11.4241 7.57403L11.6361 7.36177ZM6.62961 11.6388L6.84075 11.8519L7.35865 11.3388H6.62961V11.6388ZM2.05981 16.1664L1.75982 16.1647L1.75568 16.89L2.27096 16.3795L2.05981 16.1664ZM2.07442 13.606L1.77446 13.599L1.77443 13.6043L2.07442 13.606ZM1.69429 13.2092L1.69485 13.5092L1.70098 13.5091L1.69429 13.2092ZM1.40505 13.2097L1.40449 12.9096L1.39764 12.9098L1.40505 13.2097ZM1.00792 13.5574L0.707936 13.5511L0.707921 13.5565L1.00792 13.5574ZM0.996763 17.3925L0.696763 17.3916V17.3925H0.996763ZM1.01137 17.4028L1.30963 17.4351L1.31137 17.419V17.4028H1.01137ZM0.990388 17.5967L0.69213 17.5645L0.690747 17.5772L0.690462 17.5901L0.990388 17.5967ZM1.08309 17.8696L1.29689 17.659L1.29279 17.655L1.08309 17.8696ZM1.35509 17.9785L1.34772 17.6786L1.34763 17.6786L1.35509 17.9785ZM1.54953 17.9737V17.6736L1.54215 17.6738L1.54953 17.9737ZM1.56015 17.9721L1.56147 17.6721H1.56015V17.9721ZM5.38673 17.9888L5.38542 18.2889L5.39415 18.2887L5.38673 17.9888ZM5.78384 17.5914L6.08383 17.5985L6.08384 17.592L5.78384 17.5914ZM5.78437 17.3187L6.08437 17.3192L6.08441 17.2996L6.0819 17.2802L5.78437 17.3187ZM5.33812 16.9223L5.33733 17.2224L5.3448 17.2223L5.33812 16.9223ZM2.82719 16.9157L2.61571 16.7029L2.10169 17.2138L2.82639 17.2157L2.82719 16.9157ZM7.38053 12.3902L7.59201 12.603L7.59267 12.6024L7.38053 12.3902ZM6.62959 11.6388L6.41746 11.4267L5.90533 11.9388H6.62959V11.6388ZM18.0037 17.3922L17.7037 17.3931L17.7057 18.0863L18.2097 17.6103L18.0037 17.3922ZM17.9925 13.5571L18.2926 13.5562L18.2925 13.5504L17.9925 13.5571ZM17.5954 13.2094L17.6029 12.9094L17.596 12.9094L17.5954 13.2094ZM17.3229 13.2089L17.3162 13.5089L17.3223 13.5089L17.3229 13.2089ZM16.9425 13.6057L17.2426 13.604L17.2425 13.5994L16.9425 13.6057ZM16.9574 16.1801L16.7459 16.3929L17.2616 16.9054L17.2574 16.1784L16.9574 16.1801ZM12.3873 11.6387L12.1752 11.8509L12.1759 11.8515L12.3873 11.6387ZM11.6361 12.3899L11.424 12.6021L11.4247 12.6027L11.6361 12.3899ZM16.1895 16.9154L16.1903 17.2154L16.915 17.2135L16.401 16.7026L16.1895 16.9154ZM13.6788 16.922L13.6721 17.222L13.6796 17.222L13.6788 16.922ZM13.2325 17.3183L12.935 17.2799L12.9325 17.2993L12.9325 17.3189L13.2325 17.3183ZM13.2331 17.5911L12.933 17.5917L12.9332 17.5982L13.2331 17.5911ZM13.6302 17.9885L13.6231 18.2885L13.6315 18.2885L13.6302 17.9885ZM17.4403 17.9718V17.6718L17.439 17.6718L17.4403 17.9718ZM17.4509 17.9734L17.4583 17.6734H17.4509V17.9734ZM17.6451 17.9781L17.6525 17.6782L17.6525 17.6782L17.6451 17.9781ZM17.9174 17.8692L17.7069 17.6554L17.7036 17.6588L17.9174 17.8692ZM18.0101 17.5964L18.31 17.5913L18.3098 17.5777L18.3083 17.5642L18.0101 17.5964ZM17.9891 17.4025H17.6891V17.4187L17.6908 17.4348L17.9891 17.4025ZM18.0037 17.3922H18.3037V16.6962L17.7977 17.1741L18.0037 17.3922ZM2.8272 2.08474L2.82641 1.78475L2.10166 1.78665L2.61573 2.29753L2.8272 2.08474ZM5.33842 2.07815L5.3451 1.77813L5.33763 1.77815L5.33842 2.07815ZM5.78467 1.68182L6.0822 1.72026L6.08471 1.70083L6.08467 1.68124L5.78467 1.68182ZM5.78414 1.40904L6.08422 1.40846L6.08405 1.40161L5.78414 1.40904ZM5.38701 1.01193L5.39333 0.711905L5.38572 0.711937L5.38701 1.01193ZM1.56015 1.0284L1.52294 1.32609L1.54212 1.32848L1.56144 1.3284L1.56015 1.0284ZM1.54953 1.02654L1.54254 1.32654H1.54953V1.02654ZM1.35509 1.02201L1.34693 1.3219L1.3481 1.32193L1.35509 1.02201ZM1.08309 1.13065L1.29362 1.34443L1.2968 1.34119L1.08309 1.13065ZM0.990388 1.40345L0.690461 1.41005L0.690743 1.42288L0.69212 1.43564L0.990388 1.40345ZM1.01137 1.59789H1.31137V1.58175L1.30964 1.5657L1.01137 1.59789ZM0.996763 1.60825H0.696762L0.696764 1.60912L0.996763 1.60825ZM1.00792 5.44334L0.707864 5.44421L0.707994 5.45002L1.00792 5.44334ZM1.40505 5.79078L1.398 6.09077L1.40479 6.09078L1.40505 5.79078ZM1.69431 5.79103L1.70099 5.49103L1.69457 5.49103L1.69431 5.79103ZM2.0744 5.39445L1.77437 5.39616L1.77448 5.40113L2.0744 5.39445ZM2.05979 2.83409L2.27094 2.62097L1.75566 2.11046L1.7598 2.8358L2.05979 2.83409ZM6.62961 7.36167L6.84189 7.14968L6.84075 7.14855L6.62961 7.36167ZM7.38083 6.61021L7.59296 6.39808L7.5923 6.39742L7.38083 6.61021ZM12.5988 7.57455L17.1686 3.03283L16.7456 2.60726L12.1758 7.14898L12.5988 7.57455ZM16.6571 2.81831L16.6422 5.39275L17.2422 5.39621L17.2571 2.82178L16.6571 2.81831ZM16.6423 5.38778C16.6341 5.75643 16.9271 6.09993 17.3293 6.09098L17.3159 5.49113C17.3005 5.49148 17.2839 5.48572 17.2682 5.46911C17.2517 5.45163 17.2416 5.42699 17.2422 5.40119L16.6423 5.38778ZM17.3229 6.09106L17.5954 6.09079L17.5948 5.49079L17.3223 5.49106L17.3229 6.09106ZM17.6022 6.09071C17.7647 6.08689 17.9312 6.03643 18.0637 5.92689C18.2014 5.8131 18.288 5.64606 18.2922 5.44967L17.6923 5.43705C17.6921 5.44911 17.6897 5.45429 17.689 5.4557C17.6882 5.45734 17.6865 5.4603 17.6814 5.46445C17.6702 5.4737 17.6405 5.48965 17.5881 5.49088L17.6022 6.09071ZM18.2922 5.44423L18.3034 1.60914L17.7034 1.60739L17.6922 5.44248L18.2922 5.44423ZM18.3034 1.60826C18.3034 1.58324 18.3003 1.55944 18.2949 1.53735C18.2896 1.51539 18.2823 1.4959 18.2743 1.47904C18.2664 1.46226 18.2577 1.44791 18.2493 1.43595C18.241 1.424 18.2327 1.41392 18.2252 1.40561C18.2105 1.38935 18.1965 1.37745 18.1863 1.36951C18.1759 1.36139 18.1666 1.35523 18.1597 1.35092C18.1526 1.34654 18.1465 1.3431 18.1419 1.34062C18.1372 1.33812 18.1332 1.33611 18.1302 1.33468C18.1273 1.33324 18.1248 1.33209 18.1233 1.33136C18.1218 1.33067 18.1204 1.33005 18.1201 1.32993C18.1195 1.32965 18.12 1.32986 18.1206 1.33015C18.1213 1.33047 18.1229 1.33122 18.125 1.33225C18.1271 1.33327 18.1303 1.33488 18.1342 1.33698C18.1381 1.33905 18.1435 1.34209 18.1499 1.34607C18.1561 1.34997 18.1649 1.35574 18.1748 1.36347C18.1844 1.37101 18.1979 1.38251 18.2122 1.39837C18.2195 1.40648 18.2276 1.41636 18.2358 1.42809C18.2439 1.43983 18.2524 1.45396 18.2602 1.47049C18.2681 1.4871 18.2753 1.50632 18.2805 1.52798C18.2857 1.54976 18.2888 1.57324 18.2888 1.59792H17.6888C17.6888 1.62283 17.6919 1.64654 17.6972 1.66856C17.7025 1.69044 17.7097 1.70989 17.7177 1.72672C17.7256 1.74349 17.7343 1.75783 17.7426 1.7698C17.7508 1.78176 17.7591 1.79186 17.7666 1.80019C17.7813 1.81649 17.7953 1.82843 17.8055 1.83641C17.816 1.84457 17.8253 1.85077 17.8323 1.8551C17.8393 1.85951 17.8455 1.86297 17.8501 1.86546C17.8548 1.86799 17.8589 1.87001 17.8618 1.87145C17.8648 1.8729 17.8673 1.87406 17.8689 1.8748C17.8704 1.8755 17.8718 1.87613 17.8721 1.87627C17.8727 1.87656 17.8723 1.87635 17.8717 1.87607C17.871 1.87576 17.8694 1.87503 17.8673 1.87401C17.8653 1.873 17.8621 1.87141 17.8582 1.86932C17.8544 1.86727 17.8489 1.86425 17.8426 1.86029C17.8364 1.85642 17.8277 1.85068 17.8178 1.84299C17.8081 1.83548 17.7947 1.82402 17.7803 1.80821C17.773 1.80012 17.7649 1.79025 17.7568 1.77853C17.7486 1.7668 17.74 1.75267 17.7322 1.73611C17.7243 1.71948 17.717 1.70022 17.7118 1.67849C17.7065 1.65663 17.7034 1.63306 17.7034 1.60826H18.3034ZM18.2871 1.63011L18.308 1.43568L17.7115 1.37129L17.6905 1.56573L18.2871 1.63011ZM18.3097 1.40939C18.3128 1.25554 18.2776 1.06518 18.1279 0.917302L17.7062 1.3441C17.7027 1.3406 17.7028 1.33828 17.7046 1.34378C17.7069 1.35101 17.7104 1.36775 17.7098 1.39757L18.3097 1.40939ZM18.13 0.919413C18.0052 0.793597 17.8297 0.716905 17.6366 0.722173L17.653 1.32195C17.6741 1.32137 17.6914 1.32915 17.7041 1.34199L18.13 0.919413ZM17.6378 0.722143L17.4437 0.726658L17.4576 1.3265L17.6518 1.32198L17.6378 0.722143ZM17.4506 0.726577C17.4128 0.726577 17.3834 0.733696 17.3764 0.735364C17.3749 0.735714 17.3728 0.736218 17.3735 0.736052C17.3736 0.736046 17.3739 0.735955 17.3745 0.735827C17.375 0.735696 17.3759 0.735501 17.3769 0.735267C17.381 0.734332 17.389 0.732633 17.3993 0.731227L17.4807 1.32568C17.493 1.324 17.5028 1.32193 17.5088 1.32059C17.5116 1.31995 17.514 1.31939 17.5148 1.31919C17.5163 1.31881 17.5151 1.31911 17.5145 1.31926C17.5108 1.32012 17.4848 1.32658 17.4506 1.32658V0.726577ZM17.4413 0.728456L13.6315 0.711722L13.6289 1.31172L17.4387 1.32845L17.4413 0.728456ZM13.6235 0.711793C13.2486 0.720146 12.9415 1.02667 12.9332 1.40215L13.533 1.4155C13.5342 1.3612 13.5826 1.31285 13.6369 1.31164L13.6235 0.711793ZM12.9331 1.40824L12.9325 1.68079L13.5325 1.68196L13.5331 1.40941L12.9331 1.40824ZM12.935 1.71976C12.9879 2.13002 13.3226 2.3857 13.6855 2.37761L13.6721 1.77776C13.6359 1.77857 13.6041 1.76656 13.5809 1.74694C13.5593 1.72872 13.5371 1.69737 13.5301 1.64299L12.935 1.71976ZM13.678 2.37769L16.189 2.38433L16.1905 1.78433L13.6796 1.77769L13.678 2.37769ZM15.9783 1.87155L11.4246 6.39754L11.8476 6.82309L16.4012 2.29711L15.9783 1.87155ZM11.424 6.39818C11.0993 6.72287 11.0995 7.24899 11.4239 7.57376L11.8484 7.14977C11.7578 7.0591 11.758 6.91267 11.8483 6.82245L11.424 6.39818ZM11.4241 7.57403C11.7487 7.89819 12.2747 7.89821 12.5993 7.57403L12.1753 7.14951C12.085 7.2397 11.9385 7.23971 11.8481 7.1495L11.4241 7.57403ZM6.41846 11.4257L1.84867 15.9533L2.27096 16.3795L6.84075 11.8519L6.41846 11.4257ZM2.35981 16.1681L2.37442 13.6077L1.77443 13.6043L1.75982 16.1647L2.35981 16.1681ZM2.37434 13.6131C2.38301 13.2438 2.08948 12.9003 1.68761 12.9092L1.70098 13.5091C1.71617 13.5088 1.73283 13.5145 1.74854 13.5311C1.76504 13.5486 1.77511 13.5732 1.7745 13.599L2.37434 13.6131ZM1.69374 12.9092L1.40449 12.9097L1.4056 13.5097L1.69485 13.5092L1.69374 12.9092ZM1.39764 12.9098C1.23533 12.9138 1.06882 12.9642 0.936296 13.0738C0.798571 13.1877 0.712111 13.3548 0.707986 13.5511L1.30785 13.5637C1.30811 13.5515 1.31051 13.5462 1.3112 13.5448C1.31199 13.5432 1.31371 13.5403 1.31869 13.5361C1.3298 13.5269 1.3596 13.5109 1.41245 13.5096L1.39764 12.9098ZM0.707921 13.5565L0.696764 17.3916L1.29676 17.3934L1.30792 13.5583L0.707921 13.5565ZM0.696763 17.3925C0.696763 17.4174 0.699854 17.4413 0.705299 17.4637C0.710713 17.486 0.718224 17.5058 0.726521 17.5231C0.734777 17.5403 0.743839 17.555 0.752545 17.5672C0.761241 17.5795 0.76993 17.5898 0.777813 17.5982C0.793238 17.6148 0.807873 17.6268 0.818486 17.6347C0.829342 17.6429 0.83899 17.649 0.846068 17.6531C0.853281 17.6574 0.859545 17.6607 0.864151 17.6631C0.868819 17.6655 0.872796 17.6673 0.875592 17.6686C0.878399 17.6699 0.88073 17.671 0.882056 17.6715C0.882749 17.6719 0.883342 17.6721 0.8837 17.6723C0.884695 17.6727 0.883683 17.6723 0.884351 17.6725C0.884577 17.6726 0.883791 17.6723 0.882666 17.6718C0.881507 17.6713 0.879369 17.6703 0.876651 17.669C0.873957 17.6677 0.870048 17.6658 0.865371 17.6632C0.860753 17.6607 0.854447 17.6572 0.847146 17.6525C0.839957 17.6479 0.830294 17.6412 0.819502 17.6324C0.808866 17.6236 0.794829 17.6108 0.780369 17.5935C0.765894 17.5761 0.748783 17.5516 0.735112 17.5194C0.728206 17.5032 0.722211 17.485 0.717965 17.4652C0.713704 17.4453 0.711373 17.4244 0.711373 17.4028H1.31137C1.31137 17.381 1.30901 17.3599 1.3047 17.3397C1.3004 17.3196 1.29432 17.3012 1.2873 17.2847C1.27342 17.252 1.256 17.227 1.24112 17.2092C1.22626 17.1913 1.21174 17.1781 1.20055 17.1689C1.1892 17.1596 1.17891 17.1525 1.17103 17.1474C1.16305 17.1423 1.156 17.1383 1.1506 17.1354C1.14514 17.1324 1.1404 17.1301 1.13685 17.1284C1.13328 17.1266 1.13025 17.1253 1.1282 17.1243C1.12617 17.1234 1.12447 17.1227 1.12378 17.1224C1.12262 17.1219 1.12318 17.1221 1.12335 17.1222C1.12378 17.1224 1.12523 17.123 1.12718 17.1239C1.12912 17.1248 1.13227 17.1263 1.13615 17.1283C1.13997 17.1302 1.1455 17.1331 1.15202 17.137C1.15842 17.1408 1.16744 17.1465 1.17774 17.1542C1.18779 17.1617 1.20194 17.1733 1.21697 17.1894C1.22465 17.1977 1.23316 17.2078 1.2417 17.2198C1.25025 17.2318 1.25918 17.2463 1.26733 17.2633C1.27552 17.2803 1.28295 17.2999 1.28831 17.322C1.2937 17.3441 1.29676 17.3678 1.29676 17.3925H0.696763ZM0.713114 17.3706L0.69213 17.5645L1.28865 17.629L1.30963 17.4351L0.713114 17.3706ZM0.690462 17.5901C0.687055 17.7438 0.721928 17.9361 0.873395 18.0841L1.29279 17.655C1.2971 17.6592 1.29716 17.6621 1.29544 17.6568C1.29318 17.6497 1.28966 17.633 1.29031 17.6034L0.690462 17.5901ZM0.869334 18.0801C0.994742 18.2074 1.17097 18.2831 1.36255 18.2784L1.34763 17.6786C1.32565 17.6791 1.3085 17.6709 1.29685 17.6591L0.869334 18.0801ZM1.36247 18.2784L1.5569 18.2736L1.54215 17.6738L1.34772 17.6786L1.36247 18.2784ZM1.54953 18.2737C1.57243 18.2737 1.59146 18.2712 1.60492 18.2688C1.61139 18.2676 1.61663 18.2665 1.6198 18.2657C1.62251 18.2651 1.6253 18.2644 1.62465 18.2646C1.62463 18.2646 1.59641 18.2721 1.56015 18.2721V17.6721C1.51963 17.6721 1.48795 17.6804 1.48461 17.6812C1.48313 17.6815 1.48509 17.6811 1.48698 17.6806C1.48933 17.6801 1.49375 17.6791 1.49938 17.6781C1.51117 17.676 1.52848 17.6737 1.54953 17.6737V18.2737ZM1.55884 18.2721L5.38542 18.2888L5.38804 17.6888L1.56147 17.6721L1.55884 18.2721ZM5.39415 18.2887C5.76856 18.2795 6.07497 17.9733 6.08376 17.5985L5.48392 17.5844C5.48265 17.6388 5.43415 17.6876 5.37931 17.6889L5.39415 18.2887ZM6.08384 17.592L6.08437 17.3192L5.48437 17.3181L5.48384 17.5909L6.08384 17.592ZM6.0819 17.2802C6.02898 16.8708 5.69465 16.6143 5.33144 16.6224L5.3448 17.2223C5.38078 17.2215 5.41253 17.2334 5.43594 17.2532C5.45773 17.2716 5.47986 17.3031 5.48685 17.3571L6.0819 17.2802ZM5.33891 16.6223L2.82798 16.6157L2.82639 17.2157L5.33733 17.2223L5.33891 16.6223ZM3.03866 17.1285L7.59201 12.603L7.16905 12.1775L2.61571 16.7029L3.03866 17.1285ZM7.59267 12.6024C7.91726 12.2778 7.91728 11.7515 7.59266 11.4269L7.1684 11.8512C7.25869 11.9415 7.2587 12.0878 7.16839 12.1781L7.59267 12.6024ZM7.59266 11.4269C7.26825 11.1025 6.74226 11.1019 6.41746 11.4267L6.84172 11.8509C6.93182 11.7608 7.07791 11.7607 7.1684 11.8512L7.59266 11.4269ZM6.62959 11.9388H6.62961V11.3388H6.62959V11.9388ZM18.3037 17.3914L18.2925 13.5562L17.6925 13.558L17.7037 17.3931L18.3037 17.3914ZM18.2925 13.5504C18.2881 13.3541 18.2014 13.1872 18.0638 13.0734C17.9314 12.964 17.7651 12.9135 17.6029 12.9095L17.588 13.5093C17.6404 13.5106 17.6703 13.5266 17.6815 13.5359C17.6866 13.5401 17.6884 13.5431 17.6892 13.5448C17.6899 13.5463 17.6923 13.5516 17.6926 13.5638L18.2925 13.5504ZM17.596 12.9094L17.3235 12.9089L17.3223 13.5089L17.5949 13.5094L17.596 12.9094ZM17.3296 12.9089C16.9268 12.9 16.6349 13.2443 16.6426 13.612L17.2425 13.5994C17.2419 13.5733 17.2522 13.5484 17.2687 13.5308C17.2845 13.5141 17.301 13.5085 17.3162 13.5088L17.3296 12.9089ZM16.6425 13.6074L16.6574 16.1819L17.2574 16.1784L17.2425 13.604L16.6425 13.6074ZM17.1689 15.9673L12.5988 11.4259L12.1759 11.8515L16.7459 16.3929L17.1689 15.9673ZM12.5995 11.4266C12.2748 11.102 11.7486 11.102 11.424 11.4266L11.8483 11.8509C11.9386 11.7606 12.0849 11.7606 12.1752 11.8509L12.5995 11.4266ZM11.424 11.4266C11.0994 11.7512 11.0994 12.2775 11.424 12.6021L11.8483 12.1778C11.758 12.0875 11.758 11.9412 11.8483 11.8509L11.424 11.4266ZM11.4247 12.6027L15.978 17.1282L16.401 16.7026L11.8476 12.1771L11.4247 12.6027ZM16.1887 16.6154L13.678 16.622L13.6796 17.222L16.1903 17.2154L16.1887 16.6154ZM13.6855 16.6221C13.3222 16.614 12.988 16.8705 12.935 17.2799L13.5301 17.3568C13.5371 17.3028 13.5592 17.2713 13.581 17.2529C13.6044 17.2331 13.6362 17.2211 13.6721 17.222L13.6855 16.6221ZM12.9325 17.3189L12.9331 17.5917L13.5331 17.5906L13.5325 17.3178L12.9325 17.3189ZM12.9332 17.5982C12.942 17.9732 13.2486 18.2796 13.6231 18.2884L13.6372 17.6886C13.583 17.6873 13.5343 17.6388 13.533 17.5841L12.9332 17.5982ZM13.6315 18.2885L17.4416 18.2718L17.439 17.6718L13.6289 17.6885L13.6315 18.2885ZM17.4403 18.2718C17.4212 18.2718 17.4053 18.2699 17.3941 18.268C17.3886 18.2671 17.3842 18.2662 17.3815 18.2656C17.3791 18.2651 17.3771 18.2646 17.3777 18.2648C17.3778 18.2648 17.3777 18.2648 17.3778 18.2648C17.3779 18.2648 17.378 18.2648 17.3781 18.2649C17.3784 18.2649 17.3787 18.265 17.3791 18.2651C17.38 18.2653 17.3813 18.2656 17.3829 18.2659C17.3861 18.2666 17.3912 18.2677 17.3974 18.2688C17.4101 18.271 17.4286 18.2734 17.4509 18.2734V17.6734C17.4714 17.6734 17.4882 17.6756 17.4992 17.6775C17.5045 17.6784 17.5087 17.6793 17.5111 17.6798C17.5131 17.6802 17.5149 17.6807 17.5138 17.6804C17.5135 17.6803 17.5107 17.6797 17.5073 17.679C17.5038 17.6782 17.4985 17.6771 17.4922 17.6761C17.4791 17.6739 17.4614 17.6718 17.4403 17.6718V18.2718ZM17.4436 18.2733L17.6377 18.2781L17.6525 17.6782L17.4583 17.6735L17.4436 18.2733ZM17.6377 18.2781C17.8294 18.2828 18.0056 18.2072 18.1311 18.0797L17.7036 17.6588C17.692 17.6705 17.6749 17.6788 17.6525 17.6782L17.6377 18.2781ZM18.1278 18.083C18.2784 17.9348 18.3127 17.7435 18.31 17.5913L17.7101 17.6016C17.7106 17.632 17.7071 17.6491 17.7047 17.6565C17.7029 17.6622 17.7028 17.6595 17.7069 17.6555L18.1278 18.083ZM18.3083 17.5642L18.2874 17.3703L17.6908 17.4348L17.7118 17.6287L18.3083 17.5642ZM18.2891 17.4025C18.2891 17.4242 18.2868 17.4451 18.2825 17.4651C18.2782 17.485 18.2722 17.5032 18.2652 17.5194C18.2515 17.5516 18.2343 17.5762 18.2199 17.5935C18.2054 17.6108 18.1914 17.6235 18.1808 17.6322C18.17 17.6411 18.1604 17.6477 18.1532 17.6523C18.1459 17.657 18.1396 17.6605 18.135 17.663C18.1304 17.6655 18.1265 17.6674 18.1238 17.6687C18.1211 17.67 18.119 17.671 18.1178 17.6715C18.1167 17.672 18.1159 17.6724 18.1161 17.6723C18.1168 17.672 18.1158 17.6724 18.1168 17.672C18.1171 17.6718 18.1177 17.6716 18.1184 17.6713C18.1197 17.6707 18.1221 17.6697 18.1248 17.6684C18.1276 17.6671 18.1316 17.6652 18.1362 17.6628C18.1408 17.6605 18.1471 17.6572 18.1543 17.653C18.1613 17.6488 18.1709 17.6427 18.1818 17.6346C18.1923 17.6267 18.207 17.6148 18.2224 17.5983C18.2303 17.5898 18.239 17.5795 18.2477 17.5673C18.2564 17.5551 18.2655 17.5404 18.2738 17.5232C18.2821 17.5059 18.2897 17.486 18.2951 17.4637C18.3006 17.4413 18.3037 17.4173 18.3037 17.3922H17.7037C17.7037 17.3674 17.7068 17.3436 17.7122 17.3214C17.7176 17.2993 17.7251 17.2796 17.7333 17.2626C17.7415 17.2456 17.7505 17.2311 17.759 17.2191C17.7676 17.2071 17.7761 17.197 17.7838 17.1888C17.7988 17.1727 17.813 17.1612 17.823 17.1537C17.8333 17.1461 17.8422 17.1404 17.8486 17.1366C17.8551 17.1328 17.8606 17.1299 17.8644 17.128C17.8683 17.126 17.8714 17.1245 17.8733 17.1236C17.8753 17.1227 17.8767 17.1221 17.8771 17.1219C17.8773 17.1218 17.8779 17.1216 17.8767 17.1221C17.876 17.1224 17.8743 17.1231 17.8723 17.124C17.8703 17.125 17.8672 17.1263 17.8637 17.128C17.8601 17.1297 17.8554 17.1321 17.85 17.135C17.8446 17.1379 17.8376 17.1419 17.8296 17.147C17.8217 17.1521 17.8115 17.1591 17.8001 17.1684C17.789 17.1776 17.7745 17.1908 17.7596 17.2086C17.7447 17.2264 17.7273 17.2514 17.7133 17.2841C17.7063 17.3006 17.7002 17.319 17.6958 17.3392C17.6915 17.3594 17.6891 17.3807 17.6891 17.4025H18.2891ZM17.7977 17.1741L17.7977 17.1741L18.2097 17.6103L18.2097 17.6103L17.7977 17.1741ZM2.82799 2.38474L5.33921 2.37815L5.33763 1.77815L2.82641 1.78475L2.82799 2.38474ZM5.33174 2.37808C5.69482 2.38617 6.02926 2.13005 6.0822 1.72026L5.48714 1.64339C5.48014 1.69763 5.45798 1.72905 5.43628 1.74736C5.41295 1.76705 5.38121 1.77903 5.3451 1.77823L5.33174 2.37808ZM6.08467 1.68124L6.08414 1.40846L5.48414 1.40963L5.48467 1.68241L6.08467 1.68124ZM6.08405 1.40161C6.07477 1.02759 5.7691 0.719918 5.39333 0.712001L5.38069 1.31187C5.43358 1.31298 5.48285 1.36075 5.48423 1.41648L6.08405 1.40161ZM5.38572 0.711937L1.55886 0.728406L1.56144 1.3284L5.3883 1.31193L5.38572 0.711937ZM1.59736 0.73072C1.60793 0.732041 1.61642 0.733736 1.62173 0.734907C1.62421 0.735453 1.62606 0.735899 1.6265 0.736007C1.62886 0.736577 1.62466 0.735559 1.62465 0.735558C1.61803 0.733968 1.58818 0.726544 1.54953 0.726544V1.32654C1.5146 1.32654 1.48794 1.31978 1.48463 1.31899C1.4842 1.31889 1.4839 1.31881 1.48407 1.31886C1.48409 1.31886 1.48471 1.31901 1.48531 1.31916C1.48661 1.31947 1.48933 1.32013 1.49271 1.32087C1.49984 1.32244 1.51025 1.3245 1.52294 1.32609L1.59736 0.73072ZM1.55652 0.726625L1.36208 0.722093L1.3481 1.32193L1.54254 1.32646L1.55652 0.726625ZM1.36325 0.722123C1.17103 0.716892 0.994389 0.793218 0.869378 0.920113L1.2968 1.34119C1.30836 1.32946 1.32563 1.32132 1.34693 1.3219L1.36325 0.722123ZM0.872591 0.916901C0.722301 1.06491 0.687062 1.25565 0.690461 1.41005L1.29032 1.39685C1.28966 1.36723 1.29318 1.35073 1.29541 1.34374C1.29709 1.3385 1.29713 1.34092 1.29359 1.3444L0.872591 0.916901ZM0.69212 1.43564L0.713105 1.63008L1.30964 1.5657L1.28866 1.37126L0.69212 1.43564ZM0.711373 1.59789C0.711373 1.57308 0.71446 1.54942 0.719814 1.52739C0.725136 1.50549 0.732487 1.48604 0.740527 1.46922C0.748531 1.45247 0.757278 1.43819 0.765623 1.42632C0.773959 1.41447 0.782258 1.40451 0.789741 1.39636C0.804376 1.38042 0.818158 1.36892 0.827974 1.36143C0.83803 1.35375 0.846851 1.34805 0.853138 1.34423C0.859556 1.34032 0.865 1.33736 0.868807 1.33536C0.872675 1.33334 0.875829 1.33181 0.877824 1.33086C0.879833 1.3299 0.881339 1.32922 0.881884 1.32897C0.882292 1.32879 0.882737 1.32859 0.881865 1.32898C0.881358 1.3292 0.879829 1.32989 0.878049 1.3307C0.876221 1.33153 0.873466 1.33281 0.870197 1.3344C0.86695 1.33598 0.862568 1.33817 0.857495 1.34091C0.852482 1.34362 0.845878 1.34736 0.838359 1.35213C0.830961 1.35682 0.821156 1.36347 0.810261 1.37222C0.799559 1.38082 0.785313 1.39342 0.770536 1.4105C0.755825 1.4275 0.737745 1.4522 0.72305 1.48508C0.715596 1.50175 0.708965 1.52064 0.704219 1.5416C0.69945 1.56265 0.696763 1.58499 0.696763 1.60825H1.29676C1.29676 1.63125 1.2941 1.65335 1.28939 1.67416C1.2847 1.69487 1.27815 1.71352 1.2708 1.72995C1.25632 1.76234 1.23856 1.78658 1.22425 1.80312C1.20987 1.81973 1.19611 1.83189 1.18596 1.84003C1.17562 1.84834 1.16645 1.85455 1.15973 1.8588C1.1529 1.86314 1.14704 1.86645 1.14281 1.86873C1.13852 1.87105 1.13497 1.87283 1.13257 1.87399C1.13016 1.87516 1.12829 1.87602 1.12736 1.87645C1.12648 1.87685 1.12587 1.87712 1.12627 1.87694C1.12631 1.87692 1.12767 1.87632 1.12898 1.87573C1.13042 1.87508 1.13281 1.87399 1.13568 1.87262C1.13853 1.87127 1.14251 1.86933 1.14716 1.86689C1.15175 1.86449 1.15794 1.86111 1.16504 1.85679C1.17201 1.85254 1.18146 1.84643 1.19207 1.83832C1.20245 1.83041 1.21671 1.81848 1.23175 1.8021C1.23943 1.79373 1.24791 1.78356 1.2564 1.77148C1.2649 1.7594 1.27378 1.74489 1.28189 1.72792C1.29004 1.71087 1.29747 1.6912 1.30285 1.66907C1.30826 1.64681 1.31137 1.62292 1.31137 1.59789H0.711373ZM0.696764 1.60912L0.707921 5.44421L1.30792 5.44247L1.29676 1.60737L0.696764 1.60912ZM0.707994 5.45002C0.712363 5.64615 0.798926 5.81305 0.936496 5.92683C1.06897 6.03639 1.23547 6.08688 1.398 6.09069L1.41209 5.49086C1.35973 5.48963 1.33006 5.47371 1.31889 5.46447C1.31387 5.46032 1.31208 5.45733 1.31124 5.45561C1.31051 5.45412 1.30812 5.44883 1.30785 5.43666L0.707994 5.45002ZM1.40479 6.09078L1.69405 6.09103L1.69457 5.49103L1.4053 5.49078L1.40479 6.09078ZM1.68763 6.09095C2.08973 6.09991 2.38254 5.75622 2.37433 5.38777L1.77448 5.40113C1.77505 5.42696 1.76494 5.45163 1.74843 5.46914C1.73273 5.48577 1.71615 5.49144 1.70099 5.4911L1.68763 6.09095ZM2.3744 5.39274L2.35979 2.83238L1.7598 2.8358L1.77441 5.39616L2.3744 5.39274ZM1.84865 3.0472L6.41846 7.57478L6.84075 7.14855L2.27094 2.62097L1.84865 3.0472ZM6.41733 7.57365C6.74179 7.89855 7.26841 7.89835 7.59296 7.5738L7.1687 7.14953C7.0783 7.23993 6.9318 7.23972 6.84188 7.14968L6.41733 7.57365ZM7.59296 7.5738C7.91759 7.24917 7.91756 6.72269 7.59296 6.39808L7.1687 6.82235C7.259 6.91265 7.259 7.05923 7.1687 7.14953L7.59296 7.5738ZM7.5923 6.39742L3.03867 1.87196L2.61573 2.29753L7.16935 6.823L7.5923 6.39742Z" fill="#2F3645" mask="url(#path-1-outside-1_257_189)"/>
</svg>
