<svg width="20" height="20" viewBox="0 0 20 20" fill="none" xmlns="http://www.w3.org/2000/svg">
<path d="M10.7204 8.7999C10.2404 8.6799 9.76039 8.4399 9.40039 8.0799C9.04039 7.9599 8.92039 7.5999 8.92039 7.3599C8.92039 7.1199 9.04039 6.7599 9.28039 6.6399C9.64039 6.3999 10.0004 6.1599 10.3604 6.2799C11.0804 6.2799 11.6804 6.6399 12.0404 7.1199L13.1204 5.6799C12.7604 5.3199 12.4004 5.0799 12.0404 4.8399C11.6804 4.5999 11.2004 4.4799 10.7204 4.4799V2.7999H9.28039V4.4799C8.68039 4.5999 8.08039 4.9599 7.60039 5.4399C7.12039 6.0399 6.76039 6.7599 6.88039 7.4799C6.88039 8.1999 7.12039 8.9199 7.60039 9.3999C8.20039 9.9999 9.04039 10.3599 9.76039 10.7199C10.1204 10.8399 10.6004 11.0799 10.9604 11.3199C11.2004 11.5599 11.3204 11.9199 11.3204 12.2799C11.3204 12.6399 11.2004 12.9999 10.9604 13.3599C10.6004 13.7199 10.1204 13.8399 9.76039 13.8399C9.28039 13.8399 8.68039 13.7199 8.32039 13.3599C7.96039 13.1199 7.60039 12.7599 7.36039 12.3999L6.16039 13.7199C6.52039 14.1999 6.88039 14.5599 7.36039 14.9199C7.96039 15.2799 8.68039 15.6399 9.40039 15.6399V17.1999H10.7204V15.3999C11.4404 15.2799 12.0404 14.9199 12.5204 14.4399C13.1204 13.8399 13.4804 12.8799 13.4804 12.0399C13.4804 11.3199 13.2404 10.4799 12.6404 9.9999C12.0404 9.3999 11.4404 9.0399 10.7204 8.7999ZM10.0004 0.399902C4.72039 0.399902 0.400391 4.7199 0.400391 9.9999C0.400391 15.2799 4.72039 19.5999 10.0004 19.5999C15.2804 19.5999 19.6004 15.2799 19.6004 9.9999C19.6004 4.7199 15.2804 0.399902 10.0004 0.399902ZM10.0004 18.2799C5.44039 18.2799 1.72039 14.5599 1.72039 9.9999C1.72039 5.4399 5.44039 1.7199 10.0004 1.7199C14.5604 1.7199 18.2804 5.4399 18.2804 9.9999C18.2804 14.5599 14.5604 18.2799 10.0004 18.2799Z" fill="#2F3645"/>
</svg>
