<svg width="21" height="21" viewBox="0 0 21 21" fill="none" xmlns="http://www.w3.org/2000/svg">
<path d="M10.5 1.75C5.67525 1.75 1.75 5.67525 1.75 10.5C1.75 15.3247 5.67525 19.25 10.5 19.25C15.3247 19.25 19.25 15.3247 19.25 10.5C19.25 5.67525 15.3247 1.75 10.5 1.75ZM10.5 17.5C6.64038 17.5 3.5 14.3596 3.5 10.5C3.5 6.64038 6.64038 3.5 10.5 3.5C14.3596 3.5 17.5 6.64038 17.5 10.5C17.5 14.3596 14.3596 17.5 10.5 17.5Z" fill="#2F3645"/>
<path d="M11.375 6.125H9.625V10.8622L12.5064 13.7436L13.7436 12.5064L11.375 10.1378V6.125Z" fill="#2F3645"/>
</svg>
