<svg width="45" height="38" viewBox="0 0 45 38" fill="none" xmlns="http://www.w3.org/2000/svg">
<path d="M33.1266 6.63256C24.7077 1.93917 16.2235 2.26995 7.53621 5.30234C8.34141 4.32005 9.48169 3.88294 10.5272 3.38215C24.8485 -3.47517 40.1125 1.76788 44.444 11.7191C44.8882 12.7398 44.7542 12.9696 43.5985 12.9715C19.368 13.0099 20.8551 11.7742 18.5694 20.407C17.8684 23.0548 20.4941 23.9166 23.159 23.9095C44.9637 23.8516 44.3653 23.437 43.492 25.1148C36.195 39.1289 10.75 43.439 0.195247 29.2921C0.051613 29.0998 -0.106382 28.8833 0.0966343 28.4959C7.81083 35.2302 20.3237 35.2152 29.1449 30.8007C27.6509 29.392 4.01333 34.4353 6.65511 21.3282C7.95103 14.8983 8.67606 9.56868 17.0235 7.60133C22.3603 6.34336 32.0279 7.48599 33.1266 6.63256Z" fill="white"/>
</svg>
