<svg width="45" height="38" viewBox="0 0 45 38" fill="none" xmlns="http://www.w3.org/2000/svg">
<path d="M33.1266 6.35973C24.7077 1.66634 16.2235 1.99713 7.53621 5.02951C8.34141 4.04723 9.48169 3.61011 10.5272 3.10932C24.8485 -3.748 40.1125 1.49505 44.444 11.4463C44.8882 12.4669 44.7542 12.6968 43.5985 12.6987C19.368 12.7371 20.8551 11.5014 18.5694 20.1342C17.8684 22.782 20.4941 23.6438 23.159 23.6367C44.9637 23.5788 44.3653 23.1642 43.492 24.8419C36.195 38.8561 10.75 43.1661 0.195247 29.0193C0.051613 28.827 -0.106382 28.6105 0.0966343 28.2231C7.81083 34.9574 20.3237 34.9424 29.1449 30.5279C27.6509 29.1192 4.01333 34.1625 6.65511 21.0554C7.95103 14.6255 8.67606 9.29585 17.0235 7.3285C22.3603 6.07053 32.0279 7.21317 33.1266 6.35973Z" fill="#5AAADA"/>
</svg>
