<svg width="30" height="30" viewBox="0 0 30 30" fill="none" xmlns="http://www.w3.org/2000/svg">
<circle cx="15" cy="15" r="15" fill="#7AC1EB"/>
<path d="M13.8682 15.0013L9.93304 18.935L9.93303 18.935C9.85866 19.0094 9.79966 19.0977 9.75941 19.1948C9.71916 19.292 9.69844 19.3962 9.69844 19.5013C9.69844 19.6065 9.71916 19.7107 9.75941 19.8078C9.79966 19.905 9.85866 19.9933 9.93303 20.0677C10.0074 20.1421 10.0957 20.2011 10.1929 20.2413C10.2901 20.2816 10.3942 20.3023 10.4994 20.3023C10.6046 20.3023 10.7087 20.2816 10.8059 20.2413C10.9031 20.2011 10.9914 20.1421 11.0657 20.0677L11.0657 20.0677L14.9994 16.1326L18.933 20.0677L18.933 20.0677C19.0074 20.1421 19.0957 20.2011 19.1929 20.2413C19.2901 20.2816 19.3942 20.3023 19.4994 20.3023C19.6046 20.3023 19.7087 20.2816 19.8059 20.2413C19.9031 20.2011 19.9914 20.1421 20.0657 20.0677C20.1401 19.9933 20.1991 19.905 20.2394 19.8078C20.2796 19.7107 20.3003 19.6065 20.3003 19.5013C20.3003 19.3962 20.2796 19.292 20.2394 19.1948C20.1991 19.0977 20.1401 19.0094 20.0657 18.935L20.0657 18.935L16.1306 15.0013L20.0657 11.0677L20.0657 11.0677C20.1401 10.9933 20.1991 10.905 20.2394 10.8079C20.2796 10.7107 20.3003 10.6065 20.3003 10.5013C20.3003 10.3962 20.2796 10.292 20.2394 10.1948C20.1991 10.0977 20.1401 10.0094 20.0657 9.93498C19.9914 9.86061 19.9031 9.80161 19.8059 9.76136C19.7087 9.72111 19.6046 9.70039 19.4994 9.70039C19.3942 9.70039 19.2901 9.72111 19.1929 9.76136C19.0957 9.80161 19.0074 9.86061 18.933 9.93498L18.933 9.93499L14.9994 13.8701L11.0658 9.93503C10.9915 9.86053 10.9032 9.80142 10.806 9.76109C10.7088 9.72076 10.6046 9.7 10.4994 9.7C10.3942 9.7 10.29 9.72076 10.1928 9.76109C10.0956 9.80142 10.0073 9.86053 9.93299 9.93503L9.96839 9.97034L9.93308 9.93494C9.85858 10.0093 9.79947 10.0975 9.75914 10.1947C9.71881 10.2919 9.69805 10.3961 9.69805 10.5013C9.69805 10.6066 9.71881 10.7108 9.75914 10.808C9.79947 10.9051 9.85858 10.9934 9.93308 11.0677L13.8682 15.0013Z" fill="white" stroke="white" stroke-width="0.1"/>
</svg>
