<svg width="16" height="16" viewBox="0 0 16 16" fill="none" xmlns="http://www.w3.org/2000/svg">
<path d="M7.19986 8.7999L7.19881 14.364L7.19881 14.364C7.19881 14.4691 7.21953 14.5733 7.25978 14.6705C7.30003 14.7676 7.35903 14.8559 7.4334 14.9303C7.50778 15.0047 7.59607 15.0637 7.69325 15.1039C7.79043 15.1442 7.89458 15.1649 7.99976 15.1649C8.10494 15.1649 8.20909 15.1442 8.30627 15.1039C8.40344 15.0637 8.49174 15.0047 8.56611 14.9303C8.64049 14.8559 8.69949 14.7676 8.73974 14.6705C8.77999 14.5733 8.80071 14.4691 8.80071 14.364V14.364L8.79965 8.7999L14.3637 8.80095H14.3637C14.4689 8.80095 14.5731 8.78023 14.6702 8.73998C14.7674 8.69973 14.8557 8.64073 14.9301 8.56636C15.0044 8.49198 15.0634 8.40368 15.1037 8.30651C15.1439 8.20933 15.1647 8.10518 15.1647 8C15.1647 7.89482 15.1439 7.79067 15.1037 7.69349C15.0634 7.59632 15.0044 7.50802 14.9301 7.43364C14.8557 7.35927 14.7674 7.30027 14.6702 7.26002C14.5731 7.21977 14.4689 7.19905 14.3637 7.19905H14.3637L8.79965 7.2001L8.80071 1.63605V1.63604C8.80071 1.53086 8.77999 1.42671 8.73974 1.32953C8.69949 1.23235 8.64049 1.14406 8.56611 1.06968C8.49174 0.995309 8.40344 0.936312 8.30627 0.89606C8.20909 0.855809 8.10494 0.835092 7.99976 0.835092C7.89458 0.835093 7.79043 0.855808 7.69325 0.89606C7.59607 0.936311 7.50778 0.995309 7.4334 1.06968C7.35903 1.14406 7.30003 1.23235 7.25978 1.32953C7.21953 1.42671 7.19881 1.53086 7.19881 1.63604L7.19881 1.63605L7.19986 7.2001L1.63586 7.19905C1.53063 7.19892 1.42641 7.21955 1.32917 7.25975C1.23193 7.29996 1.14357 7.35896 1.06916 7.43337C0.994758 7.50777 0.93576 7.59613 0.895553 7.69337C0.855345 7.79062 0.834717 7.89484 0.83485 8.00006L0.88485 8L0.83485 7.99994C0.834717 8.10516 0.855345 8.20938 0.895553 8.30663C0.93576 8.40387 0.994758 8.49223 1.06916 8.56663C1.14357 8.64104 1.23193 8.70004 1.32917 8.74025C1.42641 8.78045 1.53063 8.80108 1.63586 8.80095L7.19986 8.7999Z" fill="white" stroke="white" stroke-width="0.1"/>
</svg>
