<svg width="53" height="42" viewBox="0 0 53 42" fill="none" xmlns="http://www.w3.org/2000/svg">
<path d="M28.3526 31.5814C28.3526 25.5039 30.4468 19.6434 34.6353 14C38.9311 8.24806 44.7842 3.58139 52.1945 0L53 2.44186C48.0598 5.26357 44.0324 8.57364 40.9179 12.3721C37.8034 16.062 36.0851 19.9147 35.7629 23.9302C37.1591 22.6279 38.6089 21.5969 40.1125 20.8372C41.616 20.0775 43.1732 19.6977 44.7842 19.6977C46.8247 19.6977 48.3283 20.2946 49.2948 21.4884C50.3688 22.6822 50.9058 24.3101 50.9058 26.3721C50.9058 28.8682 50.2077 31.3101 48.8116 33.6977C47.5228 36.0853 45.8045 38.093 43.6565 39.7209C41.5086 41.2403 39.1996 42 36.7295 42C33.9372 42 31.843 41.1318 30.4468 39.3953C29.0507 37.5504 28.3526 34.9457 28.3526 31.5814ZM0 31.5814C0 25.5039 2.09422 19.6434 6.28267 14C10.5785 8.24806 16.4316 3.58139 23.8419 0L24.6474 2.44186C19.7072 5.26357 15.6798 8.57364 12.5653 12.3721C9.45086 16.062 7.73252 19.9147 7.41034 23.9302C8.69909 22.6279 10.0952 21.5969 11.5988 20.8372C13.2097 20.0775 14.8207 19.6977 16.4316 19.6977C18.3647 19.6977 19.8683 20.2946 20.9423 21.4884C22.0162 22.6822 22.5532 24.3101 22.5532 26.3721C22.5532 28.8682 21.8551 31.3101 20.459 33.6977C19.1702 36.0853 17.4519 38.093 15.304 39.7209C13.156 41.2403 10.847 42 8.3769 42C5.5846 42 3.49037 41.1318 2.09423 39.3953C0.698075 37.5504 0 34.9457 0 31.5814Z" fill="white" fill-opacity="0.4"/>
</svg>
