<svg width="39" height="40" viewBox="0 0 39 40" fill="none" xmlns="http://www.w3.org/2000/svg">
<path d="M1.5 19.7723V19.772C1.50093 15.0048 3.395 10.4331 6.76577 7.06206L1.5 19.7723ZM1.5 19.7723C1.5 24.5379 3.39563 29.1127 6.76577 32.4825C6.76591 32.4827 6.76606 32.4828 6.76621 32.483M1.5 19.7723L6.76621 32.483M32.1846 32.483C32.1848 32.4828 32.1849 32.4827 32.1851 32.4825C35.5552 29.1127 37.4508 24.5379 37.4508 19.7723C37.4508 15.0067 35.5552 10.4319 32.1851 7.06206C28.8169 3.69169 24.2416 1.79688 19.4754 1.79688C14.7093 1.79688 10.1342 3.69156 6.7661 7.06173L19.4754 36.2477C23.844 36.2477 28.0375 34.5108 31.124 31.4222L32.1846 32.483ZM32.1846 32.483C28.8165 35.853 24.2414 37.7477 19.4754 37.7477C14.7094 37.7477 10.1343 35.853 6.76621 32.483M32.1846 32.483H6.76621" fill="url(#paint0_linear_281_30)" stroke="white" stroke-width="3"/>
<path d="M10.4583 19.5983C15.2619 17.5059 18.4643 16.1263 20.0655 15.4598C24.6426 13.5567 25.5925 13.2261 26.2129 13.2149C26.3493 13.2128 26.6531 13.2465 26.8513 13.4067C27.0161 13.5419 27.0624 13.7246 27.0856 13.853C27.1062 13.9812 27.1345 14.2734 27.1113 14.5014C26.8642 17.1066 25.7907 23.4285 25.245 26.3465C25.0159 27.5811 24.5602 27.9951 24.12 28.0355C23.1624 28.1235 22.4364 27.4032 21.5097 26.796C20.0604 25.8453 19.2417 25.2537 17.8336 24.3262C16.2067 23.2543 17.2621 22.665 18.1889 21.7022C18.4308 21.4502 22.6475 17.6158 22.7273 17.268C22.7376 17.2245 22.7479 17.0623 22.6501 16.9769C22.5548 16.8911 22.4133 16.9205 22.3103 16.9437C22.1635 16.9766 19.8493 18.5078 15.3597 21.537C14.7033 21.9885 14.1086 22.2086 13.5732 22.197C12.9862 22.1844 11.8535 21.8644 11.0118 21.591C9.98204 21.2556 9.16084 21.0782 9.23292 20.5085C9.26896 20.212 9.67827 19.9085 10.4583 19.5983Z" fill="white"/>
<defs>
<linearGradient id="paint0_linear_281_30" x1="19.4754" y1="3.29688" x2="19.4754" y2="36.2477" gradientUnits="userSpaceOnUse">
<stop stop-color="#2AABEE"/>
<stop offset="1" stop-color="#229ED9"/>
</linearGradient>
</defs>
</svg>
