<svg width="23" height="16" viewBox="0 0 23 16" fill="none" xmlns="http://www.w3.org/2000/svg">
<path d="M6.2358 4.02609L6.2358 4.02608C6.24685 4.00924 6.26215 3.99525 6.27182 3.98676C6.2837 3.97633 6.29829 3.96471 6.31486 3.9522C6.34814 3.92706 6.39363 3.89514 6.45056 3.85676C6.56467 3.77984 6.7288 3.67431 6.94223 3.54056C7.3693 3.27292 7.99661 2.89049 8.8222 2.39446C9.98572 1.6954 10.6107 1.32163 10.9638 1.12426C11.3084 0.93167 11.4154 0.892705 11.5279 0.901088L11.528 0.901091C11.5829 0.905202 11.6532 0.932206 11.7468 0.977177C11.8447 1.0242 11.9819 1.09803 12.1764 1.20862C12.566 1.43004 13.1929 1.80312 14.2106 2.41489L14.1591 2.5006L14.2106 2.41489C15.1122 2.95692 15.7357 3.33665 16.1393 3.59093C16.341 3.71796 16.4888 3.81437 16.5895 3.88438C16.6397 3.9193 16.6795 3.94859 16.7088 3.97245C16.7234 3.98434 16.7366 3.99586 16.7477 4.00679C16.7573 4.01634 16.7709 4.03089 16.7808 4.04886C16.821 4.12227 16.8499 4.19661 16.855 4.27367C16.8603 4.35365 16.8393 4.4281 16.7942 4.49915C16.7099 4.63188 16.5362 4.75873 16.2799 4.91488L16.2279 4.82949L16.2799 4.91489L16.0025 5.0839L18.8209 6.67674C19.6807 7.16265 20.4374 7.59637 20.9892 7.91856C21.2651 8.07962 21.4902 8.21303 21.6515 8.31123C21.732 8.36029 21.7973 8.4009 21.8451 8.43194C21.869 8.44742 21.8892 8.46093 21.9051 8.47215C21.9192 8.48209 21.9353 8.49392 21.9468 8.50528L21.9468 8.50531C22.0061 8.56371 22.0559 8.616 22.0809 8.67924C22.1076 8.74672 22.1015 8.81339 22.0915 8.88324C22.0759 8.99303 22.0192 9.11635 21.9421 9.1863L21.9421 9.18634C21.934 9.19363 21.9238 9.2004 21.9191 9.20352L21.9187 9.20378C21.9152 9.20611 21.9113 9.2087 21.9068 9.21153C21.9024 9.2144 21.8974 9.21752 21.8921 9.22086C21.8708 9.23417 21.8414 9.25217 21.8043 9.27449C21.7302 9.31918 21.6243 9.38202 21.4903 9.46089C21.2224 9.61868 20.8412 9.84114 20.3751 10.1119C19.4428 10.6534 18.17 11.3884 16.7819 12.1861C14.428 13.5388 13.1622 14.2645 12.4634 14.6519C12.1145 14.8453 11.9045 14.9558 11.7701 15.018C11.6371 15.0796 11.5661 15.1 11.5 15.1C11.4339 15.1 11.3629 15.0796 11.2299 15.018C11.0955 14.9558 10.8855 14.8453 10.5366 14.6519C9.83784 14.2645 8.57203 13.5388 6.21809 12.1861C4.82996 11.3884 3.55724 10.6534 2.62493 10.1119C2.1588 9.84114 1.77765 9.61868 1.50967 9.46089C1.37573 9.38202 1.26983 9.31918 1.19567 9.27449C1.15864 9.25217 1.12915 9.23417 1.10791 9.22086C1.09734 9.21424 1.08833 9.20848 1.08125 9.20378L1.08088 9.20353C1.07618 9.20041 1.06597 9.19363 1.05793 9.18634L1.05788 9.1863C0.980809 9.11635 0.924078 8.99303 0.908478 8.88324L6.2358 4.02609ZM6.2358 4.02609C6.18828 4.09855 6.15338 4.17331 6.14423 4.25237C6.13473 4.33442 6.154 4.4118 6.19866 4.48564C6.28215 4.62371 6.45976 4.75629 6.72005 4.91488L6.72006 4.91489L6.99749 5.0839M6.2358 4.02609L6.99749 5.0839M6.99749 5.0839L4.17907 6.67674C3.31927 7.16265 2.56263 7.59637 2.01077 7.91856C1.7349 8.07962 1.50984 8.21303 1.34854 8.31123C1.26795 8.36029 1.20275 8.4009 1.15486 8.43194C1.13097 8.44742 1.11078 8.46093 1.09487 8.47215C1.0808 8.48209 1.06474 8.49392 1.0532 8.50528L1.05317 8.50531C0.993913 8.56371 0.944146 8.616 0.9191 8.67924C0.892373 8.74672 0.898547 8.81338 0.908477 8.88324L6.99749 5.0839ZM7.73168 4.30366C7.72194 4.2976 7.71263 4.2918 7.70378 4.28627C7.71653 4.27824 7.73021 4.26968 7.74477 4.26059C7.85244 4.19336 8.0066 4.0987 8.19205 3.98572C8.56285 3.7598 9.05774 3.46125 9.55377 3.1638C10.0498 2.86634 10.5468 2.5701 10.9217 2.34882C11.1092 2.23814 11.2659 2.14637 11.3767 2.0826C11.4319 2.05085 11.4751 2.02632 11.505 2.00993C11.5328 2.02598 11.5726 2.04927 11.6233 2.07912C11.7266 2.13989 11.8742 2.22736 12.0554 2.33509C12.4176 2.55052 12.9135 2.84672 13.4555 3.17165C13.9975 3.49654 14.4901 3.79402 14.8471 4.01156C15.0256 4.12036 15.1701 4.20903 15.2698 4.2711C15.2786 4.2766 15.2871 4.28188 15.2952 4.28694C15.2866 4.29227 15.2777 4.29785 15.2683 4.30366C15.1677 4.36627 15.022 4.45571 14.8418 4.56545C14.4815 4.78488 13.9845 5.08497 13.4376 5.41273L11.5 6.57406L9.56236 5.41273C9.01551 5.08497 8.51846 4.78488 8.1582 4.56545C7.97803 4.45571 7.83228 4.36627 7.73168 4.30366ZM7.70899 5.93542C7.68818 5.92205 7.66933 5.90982 7.6525 5.89878C7.6907 5.87472 7.73724 5.84819 7.78582 5.8227C7.84547 5.7914 7.90584 5.7629 7.95482 5.74323C7.97947 5.73334 7.99948 5.72639 8.01414 5.72235C8.01538 5.72201 8.01653 5.7217 8.0176 5.72143C8.02272 5.72391 8.02896 5.72702 8.0364 5.73083C8.06194 5.74391 8.0979 5.76327 8.14356 5.78854C8.23465 5.83897 8.36164 5.91143 8.51547 6.00069C8.82299 6.17913 9.23619 6.42379 9.68074 6.69157L9.73234 6.60591L9.68074 6.69157C10.3582 7.09964 10.7705 7.34431 11.0293 7.48694C11.1584 7.55813 11.2521 7.60546 11.3228 7.63512C11.3924 7.6643 11.4485 7.68031 11.5 7.68031C11.5514 7.68031 11.6076 7.6643 11.6772 7.63513C11.7479 7.60547 11.8416 7.55816 11.9708 7.487C12.2296 7.34444 12.6419 7.09993 13.3192 6.69221C13.7639 6.42454 14.1753 6.17936 14.4798 6.00001C14.6321 5.91031 14.7575 5.83721 14.8468 5.78604C14.8915 5.76042 14.9268 5.74053 14.9517 5.72688C14.9575 5.7237 14.9627 5.72093 14.9671 5.71856C14.982 5.72291 15.0026 5.73027 15.0282 5.74065C15.0813 5.76217 15.148 5.79347 15.2138 5.82728C15.2645 5.85332 15.3132 5.88012 15.3534 5.90419C15.3364 5.91514 15.3174 5.92723 15.2966 5.9404C15.1892 6.00837 15.0353 6.10327 14.8498 6.2162C14.4791 6.44197 13.984 6.73883 13.4865 7.03435C12.989 7.32987 12.4893 7.62386 12.1095 7.8439C11.9195 7.95396 11.7598 8.0453 11.6455 8.10903C11.5883 8.14096 11.5431 8.16558 11.5114 8.18206C11.507 8.18435 11.5029 8.18645 11.4992 8.18835C11.4952 8.18636 11.4908 8.18414 11.486 8.1817C11.4539 8.16524 11.4083 8.14062 11.3506 8.10863C11.2355 8.04477 11.0753 7.95321 10.8849 7.84285C10.5043 7.62223 10.0049 7.32745 9.50847 7.0312C9.01204 6.73495 8.51896 6.43743 8.15099 6.21134C7.96692 6.09824 7.81462 6.0033 7.70899 5.93542ZM14.9855 5.7091C14.9865 5.70866 14.9864 5.70876 14.9854 5.70916L14.9855 5.7091ZM18.5295 7.7047L18.5787 7.61762L18.5295 7.7047C19.0824 8.01689 19.591 8.30603 19.9651 8.52035C20.1522 8.62752 20.3055 8.7159 20.4138 8.77906C20.4407 8.79479 20.4649 8.80892 20.486 8.82136C20.4287 8.86162 20.3412 8.91802 20.2142 8.99582C19.9054 9.18505 19.3754 9.49351 18.5131 9.98923L16.4284 11.1875L14.4973 10.0283C13.5883 9.48271 12.7966 9.00646 12.5352 8.84822C12.5782 8.8161 12.6428 8.77183 12.737 8.71087C13.0124 8.53271 13.5184 8.22586 14.4094 7.6906C15.3452 7.12846 15.8551 6.82436 16.1409 6.66646C16.2849 6.58685 16.3663 6.5477 16.4144 6.53066C16.4278 6.52592 16.4366 6.52363 16.4418 6.52255C16.5581 6.58996 17.4706 7.1067 18.5295 7.7047ZM16.4313 6.51636C16.4314 6.51645 16.4316 6.51653 16.4317 6.51662C16.4316 6.51653 16.4314 6.51644 16.4313 6.51635L16.4313 6.51636ZM7.6878 11.8054C7.67485 11.7975 7.66267 11.7899 7.65129 11.7829C7.66519 11.7739 7.68025 11.7642 7.69642 11.7538C7.80394 11.6848 7.95835 11.5877 8.14447 11.4719C8.51659 11.2403 9.01419 10.9345 9.51401 10.6295C10.0138 10.3246 10.5156 10.0208 10.896 9.79324C11.0863 9.67943 11.2459 9.5849 11.3597 9.51889C11.4167 9.48584 11.4616 9.46026 11.4929 9.44309C11.4944 9.44228 11.4959 9.44149 11.4973 9.44072C11.5249 9.4566 11.5647 9.47984 11.6156 9.50977C11.7197 9.57101 11.8691 9.65967 12.0528 9.76919C12.4201 9.98821 12.924 10.2904 13.4757 10.6228C14.0273 10.955 14.5276 11.2613 14.8894 11.487C15.0703 11.6 15.2162 11.6925 15.3162 11.7579C15.3288 11.7661 15.3406 11.7738 15.3516 11.7811C15.3394 11.7887 15.3262 11.7968 15.3122 11.8054C15.2099 11.8683 15.0621 11.957 14.8794 12.0652C14.5143 12.2814 14.0115 12.5745 13.4592 12.8923L11.5 14.0197L9.54075 12.8923C8.9885 12.5745 8.4857 12.2814 8.12056 12.0652C7.93792 11.957 7.79007 11.8683 7.6878 11.8054ZM8.62866 7.71582C9.50239 8.23976 9.99878 8.54034 10.2689 8.71504C10.3599 8.77393 10.4227 8.81692 10.4648 8.84826C10.2035 9.00639 9.41217 9.48242 8.50351 10.0278L6.57315 11.1865L4.48844 9.9886C3.82406 9.60682 3.29447 9.29698 2.9342 9.07993C2.7539 8.9713 2.61686 8.88642 2.52678 8.8276C2.52266 8.82491 2.51866 8.82229 2.51477 8.81973C2.54072 8.80414 2.57065 8.78636 2.60426 8.76656C2.72715 8.69418 2.89759 8.59579 3.09979 8.48023C3.5041 8.24917 4.03428 7.9501 4.56256 7.65451C5.09084 7.35893 5.61694 7.06699 6.0131 6.85017C6.21125 6.74173 6.37654 6.65227 6.49324 6.5906C6.55171 6.55969 6.5973 6.53612 6.6285 6.5207C6.62904 6.52044 6.62958 6.52017 6.6301 6.51991C6.63179 6.52092 6.63355 6.52195 6.63536 6.52303L6.75993 6.59713C6.86642 6.66062 7.01781 6.75106 7.20293 6.86178C7.57315 7.08323 8.07819 7.38573 8.62866 7.71582ZM6.59087 6.49679L6.59098 6.49685L6.59087 6.49679Z" fill="white" stroke="white" stroke-width="0.2"/>
</svg>
