<svg width="21" height="19" viewBox="0 0 21 19" fill="none" xmlns="http://www.w3.org/2000/svg">
<mask id="path-1-outside-1_257_56" maskUnits="userSpaceOnUse" x="0" y="0" width="21" height="19" fill="black">
<rect fill="white" width="21" height="19"/>
<path fill-rule="evenodd" clip-rule="evenodd" d="M1.28801 1.07184C1.20321 1.11459 1.12023 1.19605 1.07463 1.28137C1.00052 1.42004 1 1.47614 1 9.4994C1 17.5259 1.00048 17.5787 1.0747 17.7176C1.12279 17.8076 1.20162 17.8828 1.29591 17.9287C1.44149 17.9996 1.49541 18 10.5 18C19.5046 18 19.5585 17.9996 19.7041 17.9287C19.7984 17.8828 19.8772 17.8076 19.9253 17.7176C19.9995 17.5787 20 17.5259 20 9.4994C20 1.47292 19.9995 1.42011 19.9253 1.28123C19.8772 1.19123 19.7984 1.116 19.7041 1.0701C19.5585 0.99919 19.5063 0.998801 10.4922 1.00036C1.53972 1.00192 1.42501 1.0028 1.28801 1.07184ZM9.94336 3.12395V4.18653H6.02832H2.11328V3.12395V2.06138H6.02832H9.94336V3.12395ZM18.8867 3.12395V4.18653H14.9717H11.0566V3.12395V2.06138H14.9717H18.8867V3.12395ZM5.45312 6.31168V7.37425H3.7832H2.11328V6.31168V5.2491H3.7832H5.45312V6.31168ZM14.3965 6.31168V7.37425H10.4814H6.56641V6.31168V5.2491H10.4814H14.3965V6.31168ZM18.8867 6.31168V7.37425H17.1982H15.5098V6.31168V5.2491H17.1982H18.8867V6.31168ZM9.94336 9.4994V10.562H6.02832H2.11328V9.4994V8.43683H6.02832H9.94336V9.4994ZM18.8867 9.4994V10.562H14.9717H11.0566V9.4994V8.43683H14.9717H18.8867V9.4994ZM5.45312 12.6871V13.7497H3.7832H2.11328V12.6871V11.6245H3.7832H5.45312V12.6871ZM14.3965 12.6871V13.7497H10.4814H6.56641V12.6871V11.6245H10.4814H14.3965V12.6871ZM18.8867 12.6871V13.7497H17.1982H15.5098V12.6871V11.6245H17.1982H18.8867V12.6871ZM9.94336 15.8749V16.9374H6.02832H2.11328V15.8749V14.8123H6.02832H9.94336V15.8749ZM18.8867 15.8749V16.9374H14.9717H11.0566V15.8749V14.8123H14.9717H18.8867V15.8749Z"/>
</mask>
<path fill-rule="evenodd" clip-rule="evenodd" d="M1.28801 1.07184C1.20321 1.11459 1.12023 1.19605 1.07463 1.28137C1.00052 1.42004 1 1.47614 1 9.4994C1 17.5259 1.00048 17.5787 1.0747 17.7176C1.12279 17.8076 1.20162 17.8828 1.29591 17.9287C1.44149 17.9996 1.49541 18 10.5 18C19.5046 18 19.5585 17.9996 19.7041 17.9287C19.7984 17.8828 19.8772 17.8076 19.9253 17.7176C19.9995 17.5787 20 17.5259 20 9.4994C20 1.47292 19.9995 1.42011 19.9253 1.28123C19.8772 1.19123 19.7984 1.116 19.7041 1.0701C19.5585 0.99919 19.5063 0.998801 10.4922 1.00036C1.53972 1.00192 1.42501 1.0028 1.28801 1.07184ZM9.94336 3.12395V4.18653H6.02832H2.11328V3.12395V2.06138H6.02832H9.94336V3.12395ZM18.8867 3.12395V4.18653H14.9717H11.0566V3.12395V2.06138H14.9717H18.8867V3.12395ZM5.45312 6.31168V7.37425H3.7832H2.11328V6.31168V5.2491H3.7832H5.45312V6.31168ZM14.3965 6.31168V7.37425H10.4814H6.56641V6.31168V5.2491H10.4814H14.3965V6.31168ZM18.8867 6.31168V7.37425H17.1982H15.5098V6.31168V5.2491H17.1982H18.8867V6.31168ZM9.94336 9.4994V10.562H6.02832H2.11328V9.4994V8.43683H6.02832H9.94336V9.4994ZM18.8867 9.4994V10.562H14.9717H11.0566V9.4994V8.43683H14.9717H18.8867V9.4994ZM5.45312 12.6871V13.7497H3.7832H2.11328V12.6871V11.6245H3.7832H5.45312V12.6871ZM14.3965 12.6871V13.7497H10.4814H6.56641V12.6871V11.6245H10.4814H14.3965V12.6871ZM18.8867 12.6871V13.7497H17.1982H15.5098V12.6871V11.6245H17.1982H18.8867V12.6871ZM9.94336 15.8749V16.9374H6.02832H2.11328V15.8749V14.8123H6.02832H9.94336V15.8749ZM18.8867 15.8749V16.9374H14.9717H11.0566V15.8749V14.8123H14.9717H18.8867V15.8749Z" fill="white"/>
<path fill-rule="evenodd" clip-rule="evenodd" d="M1.28801 1.07184C1.20321 1.11459 1.12023 1.19605 1.07463 1.28137C1.00052 1.42004 1 1.47614 1 9.4994C1 17.5259 1.00048 17.5787 1.0747 17.7176C1.12279 17.8076 1.20162 17.8828 1.29591 17.9287C1.44149 17.9996 1.49541 18 10.5 18C19.5046 18 19.5585 17.9996 19.7041 17.9287C19.7984 17.8828 19.8772 17.8076 19.9253 17.7176C19.9995 17.5787 20 17.5259 20 9.4994C20 1.47292 19.9995 1.42011 19.9253 1.28123C19.8772 1.19123 19.7984 1.116 19.7041 1.0701C19.5585 0.99919 19.5063 0.998801 10.4922 1.00036C1.53972 1.00192 1.42501 1.0028 1.28801 1.07184ZM9.94336 3.12395V4.18653H6.02832H2.11328V3.12395V2.06138H6.02832H9.94336V3.12395ZM18.8867 3.12395V4.18653H14.9717H11.0566V3.12395V2.06138H14.9717H18.8867V3.12395ZM5.45312 6.31168V7.37425H3.7832H2.11328V6.31168V5.2491H3.7832H5.45312V6.31168ZM14.3965 6.31168V7.37425H10.4814H6.56641V6.31168V5.2491H10.4814H14.3965V6.31168ZM18.8867 6.31168V7.37425H17.1982H15.5098V6.31168V5.2491H17.1982H18.8867V6.31168ZM9.94336 9.4994V10.562H6.02832H2.11328V9.4994V8.43683H6.02832H9.94336V9.4994ZM18.8867 9.4994V10.562H14.9717H11.0566V9.4994V8.43683H14.9717H18.8867V9.4994ZM5.45312 12.6871V13.7497H3.7832H2.11328V12.6871V11.6245H3.7832H5.45312V12.6871ZM14.3965 12.6871V13.7497H10.4814H6.56641V12.6871V11.6245H10.4814H14.3965V12.6871ZM18.8867 12.6871V13.7497H17.1982H15.5098V12.6871V11.6245H17.1982H18.8867V12.6871ZM9.94336 15.8749V16.9374H6.02832H2.11328V15.8749V14.8123H6.02832H9.94336V15.8749ZM18.8867 15.8749V16.9374H14.9717H11.0566V15.8749V14.8123H14.9717H18.8867V15.8749Z" stroke="white" stroke-width="0.2" mask="url(#path-1-outside-1_257_56)"/>
</svg>
