<svg width="19" height="19" viewBox="0 0 19 19" fill="none" xmlns="http://www.w3.org/2000/svg">
<mask id="path-1-inside-1_257_78" fill="white">
<path fill-rule="evenodd" clip-rule="evenodd" d="M2.72754 0.0475014C2.1074 0.183377 1.5213 0.630391 1.24457 1.17861C1.00422 1.65465 1.0224 1.31704 1.00195 5.69141L0.983398 9.66372L0.491699 9.67408L0 9.68444V11.4268V13.1692L0.339773 13.1798L0.679584 13.1905L1.18728 14.9977C1.46649 15.9917 1.73089 16.8914 1.77483 16.9972C2.03901 17.6332 2.66571 18.1697 3.37358 18.3659C3.52413 18.4077 3.65216 18.4467 3.65809 18.4527C3.66407 18.4586 3.61991 18.5797 3.56005 18.7216C3.50016 18.8636 3.45117 18.9845 3.45117 18.9901C3.45117 18.9959 3.72255 19.0003 4.0542 19L4.65723 18.9995L4.77 18.7308L4.88278 18.4622H9.5H14.1172L14.23 18.7308L14.3428 18.9995L14.9458 19C15.2775 19.0003 15.5488 18.9959 15.5488 18.9901C15.5488 18.9845 15.4998 18.8636 15.4399 18.7216C15.3801 18.5797 15.3366 18.4579 15.3434 18.4511C15.3502 18.4444 15.4618 18.4141 15.5914 18.384C16.0124 18.286 16.3488 18.0906 16.7014 17.7392C17.1848 17.2575 17.2098 17.1966 17.8088 15.0386L18.3217 13.1905L18.6608 13.1798L19 13.1692V11.4257V9.68228H10.5569H2.1139L2.12384 5.77494L2.13379 1.8676L2.21543 1.71491C2.26033 1.63097 2.38331 1.4847 2.4887 1.38988C2.82796 1.08476 3.27075 1.02848 3.69576 1.23652C3.88405 1.32866 4.15625 1.59143 4.15625 1.68105C4.15625 1.70377 4.07016 1.78808 3.96491 1.86838C3.39068 2.30645 3.05499 3.11498 3.15474 3.81967C3.18384 4.02508 3.60803 5.54514 3.64722 5.58434C3.66603 5.60317 7.6927 4.41032 7.73059 4.37472C7.77775 4.33032 7.31879 2.82634 7.1722 2.54512C6.85729 1.94088 6.21029 1.51503 5.46469 1.42114C5.27113 1.39679 5.26964 1.3956 5.15052 1.16806C4.9934 0.868025 4.54263 0.417297 4.24212 0.259816C3.78074 0.0179875 3.22061 -0.0605306 2.72754 0.0475014ZM5.74746 2.64495C6.05221 2.79942 6.25504 3.09192 6.35932 3.52724C6.38663 3.64122 6.54108 3.58189 5.12109 4.00266L4.39746 4.21709L4.33055 4.00756C4.15792 3.46699 4.29908 3.00108 4.72918 2.69198C4.99299 2.50239 5.42676 2.48234 5.74746 2.64495ZM7.66309 5.15912C7.39775 5.24117 7.17725 5.31159 7.17306 5.31564C7.16311 5.32525 7.46377 6.35479 7.48259 6.37558C7.49053 6.38434 7.58445 6.36459 7.69136 6.3317C7.79827 6.2988 8.03188 6.22797 8.21045 6.17432C8.39522 6.11879 8.53516 6.05657 8.53516 6.02995C8.53516 5.89849 8.2427 5.02247 8.19687 5.01656C8.16863 5.01293 7.92842 5.07708 7.66309 5.15912ZM5.90039 5.68261C5.62485 5.76607 5.39333 5.83891 5.38587 5.84448C5.37841 5.85008 5.43359 6.06013 5.50844 6.31131C5.58329 6.5625 5.65313 6.79724 5.66363 6.83299C5.67413 6.86874 5.70764 6.89795 5.73811 6.89795C5.81467 6.89795 6.69104 6.63489 6.72912 6.60048C6.75461 6.57746 6.69063 6.32646 6.47136 5.58932C6.44764 5.50965 6.49911 5.50126 5.90039 5.68261ZM4.08389 6.22656C3.8298 6.30385 3.61657 6.38296 3.61011 6.40242C3.59846 6.43739 3.87496 7.40856 3.90521 7.43878C3.9189 7.45248 4.93462 7.16421 4.96616 7.13763C4.9728 7.13206 4.90764 6.89209 4.82132 6.60434C4.70328 6.21086 4.64973 6.08181 4.60516 6.08363C4.57258 6.08493 4.33801 6.14927 4.08389 6.22656ZM8.20852 6.97105C7.9574 7.04868 7.74295 7.12126 7.73192 7.13228C7.71177 7.15244 7.9702 8.08664 8.01674 8.162C8.03347 8.18907 8.21 8.15153 8.55742 8.04699C8.84112 7.96164 9.07866 7.88687 9.0853 7.8809C9.09195 7.87488 9.02678 7.63458 8.94046 7.34683C8.82205 6.95204 8.76902 6.82445 8.7243 6.82679C8.69172 6.82846 8.4596 6.89339 8.20852 6.97105ZM6.4292 7.50078C6.10219 7.60109 5.9375 7.66914 5.9375 7.70392C5.9375 7.78177 6.20209 8.65598 6.23738 8.69477C6.26336 8.72336 7.17354 8.48183 7.27403 8.41968C7.31663 8.39336 7.00714 7.34289 6.95801 7.34694C6.9376 7.34861 6.69962 7.41784 6.4292 7.50078ZM4.65723 8.03225C4.21184 8.16586 4.13948 8.19801 4.15009 8.25767C4.17428 8.39321 4.42351 9.2186 4.44741 9.24225C4.46611 9.26074 5.23547 9.05083 5.47931 8.9607C5.50848 8.94993 5.47129 8.77801 5.3623 8.41998C5.27439 8.1313 5.19669 7.89092 5.18963 7.88576C5.18255 7.88064 4.94297 7.94657 4.65723 8.03225ZM17.8867 11.4271V12.0582H9.5H1.11328V11.4271V10.796H9.5H17.8867V11.4271ZM17.1445 13.2379C17.1445 13.3662 16.2311 16.5265 16.1519 16.672C16.0353 16.8864 15.8032 17.1019 15.5568 17.2243L15.3818 17.3113H9.5H3.61816L3.45117 17.2225C3.19193 17.0845 3.06045 16.971 2.91724 16.7618C2.80369 16.5958 2.72331 16.3485 2.34182 14.9911C2.0979 14.1233 1.8869 13.3673 1.87291 13.3112L1.84742 13.2091H9.49599C13.7027 13.2091 17.1445 13.2221 17.1445 13.2379Z"/>
</mask>
<path fill-rule="evenodd" clip-rule="evenodd" d="M2.72754 0.0475014C2.1074 0.183377 1.5213 0.630391 1.24457 1.17861C1.00422 1.65465 1.0224 1.31704 1.00195 5.69141L0.983398 9.66372L0.491699 9.67408L0 9.68444V11.4268V13.1692L0.339773 13.1798L0.679584 13.1905L1.18728 14.9977C1.46649 15.9917 1.73089 16.8914 1.77483 16.9972C2.03901 17.6332 2.66571 18.1697 3.37358 18.3659C3.52413 18.4077 3.65216 18.4467 3.65809 18.4527C3.66407 18.4586 3.61991 18.5797 3.56005 18.7216C3.50016 18.8636 3.45117 18.9845 3.45117 18.9901C3.45117 18.9959 3.72255 19.0003 4.0542 19L4.65723 18.9995L4.77 18.7308L4.88278 18.4622H9.5H14.1172L14.23 18.7308L14.3428 18.9995L14.9458 19C15.2775 19.0003 15.5488 18.9959 15.5488 18.9901C15.5488 18.9845 15.4998 18.8636 15.4399 18.7216C15.3801 18.5797 15.3366 18.4579 15.3434 18.4511C15.3502 18.4444 15.4618 18.4141 15.5914 18.384C16.0124 18.286 16.3488 18.0906 16.7014 17.7392C17.1848 17.2575 17.2098 17.1966 17.8088 15.0386L18.3217 13.1905L18.6608 13.1798L19 13.1692V11.4257V9.68228H10.5569H2.1139L2.12384 5.77494L2.13379 1.8676L2.21543 1.71491C2.26033 1.63097 2.38331 1.4847 2.4887 1.38988C2.82796 1.08476 3.27075 1.02848 3.69576 1.23652C3.88405 1.32866 4.15625 1.59143 4.15625 1.68105C4.15625 1.70377 4.07016 1.78808 3.96491 1.86838C3.39068 2.30645 3.05499 3.11498 3.15474 3.81967C3.18384 4.02508 3.60803 5.54514 3.64722 5.58434C3.66603 5.60317 7.6927 4.41032 7.73059 4.37472C7.77775 4.33032 7.31879 2.82634 7.1722 2.54512C6.85729 1.94088 6.21029 1.51503 5.46469 1.42114C5.27113 1.39679 5.26964 1.3956 5.15052 1.16806C4.9934 0.868025 4.54263 0.417297 4.24212 0.259816C3.78074 0.0179875 3.22061 -0.0605306 2.72754 0.0475014ZM5.74746 2.64495C6.05221 2.79942 6.25504 3.09192 6.35932 3.52724C6.38663 3.64122 6.54108 3.58189 5.12109 4.00266L4.39746 4.21709L4.33055 4.00756C4.15792 3.46699 4.29908 3.00108 4.72918 2.69198C4.99299 2.50239 5.42676 2.48234 5.74746 2.64495ZM7.66309 5.15912C7.39775 5.24117 7.17725 5.31159 7.17306 5.31564C7.16311 5.32525 7.46377 6.35479 7.48259 6.37558C7.49053 6.38434 7.58445 6.36459 7.69136 6.3317C7.79827 6.2988 8.03188 6.22797 8.21045 6.17432C8.39522 6.11879 8.53516 6.05657 8.53516 6.02995C8.53516 5.89849 8.2427 5.02247 8.19687 5.01656C8.16863 5.01293 7.92842 5.07708 7.66309 5.15912ZM5.90039 5.68261C5.62485 5.76607 5.39333 5.83891 5.38587 5.84448C5.37841 5.85008 5.43359 6.06013 5.50844 6.31131C5.58329 6.5625 5.65313 6.79724 5.66363 6.83299C5.67413 6.86874 5.70764 6.89795 5.73811 6.89795C5.81467 6.89795 6.69104 6.63489 6.72912 6.60048C6.75461 6.57746 6.69063 6.32646 6.47136 5.58932C6.44764 5.50965 6.49911 5.50126 5.90039 5.68261ZM4.08389 6.22656C3.8298 6.30385 3.61657 6.38296 3.61011 6.40242C3.59846 6.43739 3.87496 7.40856 3.90521 7.43878C3.9189 7.45248 4.93462 7.16421 4.96616 7.13763C4.9728 7.13206 4.90764 6.89209 4.82132 6.60434C4.70328 6.21086 4.64973 6.08181 4.60516 6.08363C4.57258 6.08493 4.33801 6.14927 4.08389 6.22656ZM8.20852 6.97105C7.9574 7.04868 7.74295 7.12126 7.73192 7.13228C7.71177 7.15244 7.9702 8.08664 8.01674 8.162C8.03347 8.18907 8.21 8.15153 8.55742 8.04699C8.84112 7.96164 9.07866 7.88687 9.0853 7.8809C9.09195 7.87488 9.02678 7.63458 8.94046 7.34683C8.82205 6.95204 8.76902 6.82445 8.7243 6.82679C8.69172 6.82846 8.4596 6.89339 8.20852 6.97105ZM6.4292 7.50078C6.10219 7.60109 5.9375 7.66914 5.9375 7.70392C5.9375 7.78177 6.20209 8.65598 6.23738 8.69477C6.26336 8.72336 7.17354 8.48183 7.27403 8.41968C7.31663 8.39336 7.00714 7.34289 6.95801 7.34694C6.9376 7.34861 6.69962 7.41784 6.4292 7.50078ZM4.65723 8.03225C4.21184 8.16586 4.13948 8.19801 4.15009 8.25767C4.17428 8.39321 4.42351 9.2186 4.44741 9.24225C4.46611 9.26074 5.23547 9.05083 5.47931 8.9607C5.50848 8.94993 5.47129 8.77801 5.3623 8.41998C5.27439 8.1313 5.19669 7.89092 5.18963 7.88576C5.18255 7.88064 4.94297 7.94657 4.65723 8.03225ZM17.8867 11.4271V12.0582H9.5H1.11328V11.4271V10.796H9.5H17.8867V11.4271ZM17.1445 13.2379C17.1445 13.3662 16.2311 16.5265 16.1519 16.672C16.0353 16.8864 15.8032 17.1019 15.5568 17.2243L15.3818 17.3113H9.5H3.61816L3.45117 17.2225C3.19193 17.0845 3.06045 16.971 2.91724 16.7618C2.80369 16.5958 2.72331 16.3485 2.34182 14.9911C2.0979 14.1233 1.8869 13.3673 1.87291 13.3112L1.84742 13.2091H9.49599C13.7027 13.2091 17.1445 13.2221 17.1445 13.2379Z" fill="white" stroke="white" stroke-width="0.4" mask="url(#path-1-inside-1_257_78)"/>
</svg>
