<svg width="23" height="23" viewBox="0 0 23 23" fill="none" xmlns="http://www.w3.org/2000/svg">
<path d="M4.27701 3.93712L4.27702 3.93711C4.38465 3.88822 4.46531 3.85976 4.54801 3.86019L4.27701 3.93712ZM4.27701 3.93712C3.9623 4.08016 3.80503 4.41197 3.90784 4.73017L3.90785 4.73018M4.27701 3.93712L3.90785 4.73018M3.90785 4.73018C3.91439 4.75042 3.92884 4.77453 3.94548 4.79898C3.96303 4.82477 3.98625 4.85554 4.01402 4.89027C4.06964 4.9598 4.14524 5.04732 4.23431 5.1463C4.41257 5.34439 4.64641 5.5902 4.88608 5.83329C5.12576 6.0764 5.3717 6.31723 5.5742 6.50534C5.67541 6.59936 5.76612 6.68053 5.83996 6.74234C5.91211 6.80274 5.97251 6.84844 6.01148 6.86731L6.01148 6.86731M3.90785 4.73018L6.01148 6.86731M6.01148 6.86731C6.1423 6.93066 6.26878 6.9533 6.392 6.92979M6.01148 6.86731L6.392 6.92979M6.392 6.92979C6.51488 6.90635 6.62871 6.83812 6.73654 6.73024M6.392 6.92979L6.73654 6.73024M6.73654 6.73024C6.8382 6.62852 6.9044 6.51848 6.93098 6.40027M6.73654 6.73024L6.93098 6.40027M6.93098 6.40027C6.95762 6.28173 6.94348 6.1592 6.89144 6.03453M6.93098 6.40027L6.89144 6.03453M6.89144 6.03453C6.88356 6.01563 6.86863 5.99247 6.85086 5.96781M6.89144 6.03453L6.85086 5.96781M6.85086 5.96781C6.8324 5.94219 6.80841 5.91165 6.77992 5.87716M6.85086 5.96781L6.77992 5.87716M6.77992 5.87716C6.72291 5.80813 6.64648 5.72155 6.55702 5.62379M6.77992 5.87716L6.55702 5.62379M6.55702 5.62379C6.37801 5.42818 6.14544 5.18632 5.9085 4.94772M6.55702 5.62379L5.9085 4.94772M5.9085 4.94772C5.67157 4.70911 5.42987 4.47337 5.23258 4.29002M5.9085 4.94772L5.23258 4.29002M5.23258 4.29002C5.13397 4.19838 5.04611 4.11951 4.97531 4.05982M5.23258 4.29002L4.97531 4.05982M4.97531 4.05982C4.90639 4.00171 4.84894 3.95766 4.81304 3.94027L4.97531 4.05982ZM11.1797 1.03133L11.1797 1.03134C11.0765 1.08591 10.9776 1.18802 10.9227 1.2956L10.9227 1.29561C10.9021 1.33599 10.8854 1.37409 10.8728 1.42942C10.8605 1.48352 10.8524 1.5527 10.8469 1.6554C10.8359 1.86052 10.8348 2.20903 10.8348 2.85805C10.8348 3.50734 10.8359 3.85585 10.8469 4.06091C10.8524 4.16359 10.8605 4.23274 10.8728 4.28683C10.8854 4.34215 10.9022 4.38025 10.9228 4.42067L10.9228 4.42068C10.9743 4.52161 11.0638 4.6097 11.166 4.67245C11.2681 4.7352 11.387 4.77518 11.5 4.77518C11.613 4.77518 11.7319 4.7352 11.834 4.67245C11.9362 4.6097 12.0257 4.52161 12.0772 4.42068L12.0772 4.42067C12.0978 4.38025 12.1146 4.34215 12.1272 4.28683C12.1395 4.23274 12.1476 4.16359 12.1531 4.06091C12.1641 3.85585 12.1652 3.50734 12.1652 2.85805C12.1652 2.20876 12.1641 1.86026 12.1531 1.6552C12.1476 1.55252 12.1395 1.48337 12.1272 1.42928C12.1146 1.37396 12.0978 1.33585 12.0772 1.29544L12.0327 1.31815L12.0772 1.29543C11.9122 0.971918 11.5103 0.856756 11.1797 1.03133ZM16.9885 6.86731L16.9667 6.82231L16.9885 6.86731C17.0275 6.84844 17.0879 6.80274 17.16 6.74234C17.2339 6.68053 17.3246 6.59936 17.4258 6.50534C17.6283 6.31723 17.8742 6.0764 18.1139 5.83329C18.3536 5.5902 18.5874 5.34439 18.7657 5.1463C18.8548 5.04732 18.9304 4.9598 18.986 4.89027C19.0138 4.85554 19.037 4.82477 19.0545 4.79898C19.0712 4.77453 19.0856 4.75042 19.0922 4.73018L19.0446 4.7148L19.0922 4.73017C19.195 4.41197 19.0377 4.08016 18.723 3.93712L18.7023 3.98264L18.723 3.93712C18.6148 3.88797 18.5327 3.85957 18.449 3.86017C18.3649 3.86078 18.2857 3.89055 18.1831 3.9414C18.1474 3.95905 18.0901 4.00326 18.0213 4.06163C17.9506 4.12153 17.8628 4.20059 17.7643 4.29239C17.5673 4.47605 17.3258 4.71197 17.0892 4.95055C16.8526 5.18913 16.6204 5.43077 16.4418 5.62592C16.3525 5.72344 16.2763 5.80973 16.2195 5.8784C16.1911 5.9127 16.1672 5.94304 16.1489 5.96844C16.1312 5.99285 16.1164 6.01582 16.1086 6.03453C16.0565 6.1592 16.0424 6.28173 16.069 6.40027C16.0956 6.51848 16.1618 6.62852 16.2635 6.73024C16.3713 6.83812 16.4851 6.90635 16.608 6.92979C16.7312 6.9533 16.8577 6.93066 16.9885 6.86731ZM8.90305 19.0013L8.93927 18.9668L8.90306 19.0013C8.92703 19.0265 8.94115 19.0428 8.95158 19.062C8.9617 19.0806 8.96986 19.1049 8.97579 19.1466C8.98807 19.233 8.98906 19.3786 8.98906 19.6691C8.98906 19.9973 9.00777 20.37 9.03182 20.4967C9.17534 21.2539 9.78601 21.8648 10.5428 22.0084C10.6185 22.0228 10.7584 22.033 10.9268 22.0398C11.0964 22.0466 11.2983 22.05 11.5 22.05C11.7017 22.05 11.9036 22.0466 12.0732 22.0398C12.2416 22.033 12.3815 22.0228 12.4572 22.0084C13.214 21.8648 13.8247 21.2539 13.9682 20.4967C13.9922 20.37 14.0109 19.9992 14.0109 19.6733V19.0987L14.1378 18.9504C14.4648 18.5682 14.6262 18.1103 14.6262 17.571C14.6262 17.0073 14.8303 16.3073 15.1208 15.8713C15.2008 15.7512 15.3833 15.5234 15.5255 15.3665C16.2482 14.5697 16.6495 13.8489 16.899 12.8967C17.1693 11.8653 17.1318 10.7578 16.7922 9.733C16.1604 7.8268 14.5135 6.38952 12.5272 6.01034C12.3535 5.9772 12.0412 5.94918 11.74 5.93353C11.4395 5.91791 11.1428 5.9142 11.0018 5.93136C9.52529 6.11086 8.50567 6.58528 7.54627 7.54175C5.7481 9.33446 5.39553 12.1509 6.69587 14.3342C6.93616 14.7376 7.04633 14.8805 7.62131 15.5373C7.86868 15.8199 8.04035 16.0903 8.15828 16.4028C8.2764 16.7158 8.34153 17.0734 8.37284 17.5317C8.38328 17.6848 8.39762 17.8404 8.41231 17.968C8.42678 18.0936 8.4421 18.1968 8.45531 18.2417C8.4831 18.3363 8.56068 18.4896 8.64623 18.6347C8.73196 18.78 8.83038 18.9249 8.90305 19.0013ZM13.8585 15.388L13.8585 15.388L9.98136 18.2254L10.0041 18.1809C10.0041 18.1809 10.0041 18.1809 10.0041 18.1809C9.89798 18.1267 9.82464 18.0531 9.77674 17.9498C9.72809 17.8449 9.70423 17.7061 9.70413 17.5197C9.70376 16.8794 9.52839 16.1377 9.24012 15.5569C9.04708 15.1679 8.85341 14.8998 8.41899 14.4172C8.0322 13.9874 7.89821 13.7901 7.66763 13.3117C7.38645 12.7284 7.27693 12.2451 7.27071 11.5572C7.26777 11.2327 7.28896 10.8628 7.31854 10.7051C7.73502 8.48477 9.77448 6.99782 12.0175 7.2792C13.4104 7.45396 14.6453 8.31175 15.2728 9.53935C16.0652 11.0895 15.8572 12.9217 14.7405 14.2353C14.1621 14.9156 14.0284 15.0898 13.8585 15.388ZM8.6364 11.2607L8.67398 11.2277L8.6364 11.2607C8.67351 11.303 8.72373 11.3459 8.77452 11.3816C8.82491 11.4171 8.87935 11.4478 8.92556 11.463C9.11119 11.5243 9.28802 11.502 9.44096 11.4012C9.59214 11.3016 9.71567 11.1285 9.80469 10.8954C10.0698 10.2014 10.6391 9.76863 11.3604 9.71083C11.7366 9.68067 11.959 9.57676 12.0772 9.34496L12.0327 9.32224L12.0772 9.34496C12.2008 9.10258 12.1799 8.85546 12.0514 8.6699C11.9234 8.48496 11.6928 8.36725 11.4085 8.37209C11.2856 8.3742 11.0559 8.40028 10.8961 8.42997C9.78451 8.63649 8.8584 9.4593 8.51902 10.5417C8.47259 10.6898 8.45583 10.8184 8.47476 10.9368C8.49382 11.056 8.54831 11.1603 8.6364 11.2607ZM1.29498 10.9209L1.29497 10.9209C1.19825 10.972 1.11261 11.063 1.05134 11.1652C0.990057 11.2674 0.95 11.3861 0.95 11.4961C0.95 11.6091 0.989957 11.728 1.05267 11.8302C1.11539 11.9324 1.20344 12.022 1.30432 12.0735L1.32706 12.029L1.30433 12.0735C1.34473 12.0942 1.38282 12.1109 1.43812 12.1235C1.49219 12.1359 1.56131 12.1439 1.66394 12.1495C1.8689 12.1605 2.21724 12.1616 2.86621 12.1616C3.51518 12.1616 3.86352 12.1605 4.06849 12.1495C4.17111 12.1439 4.24023 12.1359 4.29431 12.1235C4.3496 12.1109 4.38769 12.0942 4.42809 12.0735L4.40536 12.029L4.4281 12.0735C4.52898 12.022 4.61703 11.9324 4.67975 11.8302C4.74247 11.728 4.78242 11.6091 4.78242 11.4961C4.78242 11.3831 4.74247 11.2641 4.67975 11.1619C4.61703 11.0597 4.52898 10.9701 4.4281 10.9186C4.38767 10.898 4.34964 10.8812 4.29431 10.8686C4.24022 10.8563 4.171 10.8483 4.06798 10.8429C3.86223 10.8321 3.51181 10.8315 2.85753 10.8323C2.20887 10.8332 1.85832 10.8349 1.65215 10.846C1.44403 10.8572 1.3758 10.8783 1.29498 10.9209ZM18.5719 12.0735L18.5946 12.029L18.5719 12.0735C18.6123 12.0942 18.6504 12.1109 18.7057 12.1235C18.7598 12.1359 18.8289 12.1439 18.9315 12.1495C19.1365 12.1605 19.4848 12.1616 20.1338 12.1616C20.7828 12.1616 21.1311 12.1605 21.3361 12.1495C21.4387 12.1439 21.5078 12.1359 21.5619 12.1235C21.6172 12.1109 21.6553 12.0942 21.6957 12.0735L21.6729 12.029L21.6957 12.0735C21.7966 12.022 21.8846 11.9324 21.9473 11.8302C22.01 11.728 22.05 11.6091 22.05 11.4961C22.05 11.3831 22.01 11.2641 21.9473 11.1619C21.8846 11.0597 21.7966 10.9701 21.6957 10.9186C21.6552 10.898 21.6172 10.8812 21.5619 10.8686C21.5078 10.8563 21.4386 10.8483 21.3356 10.8429C21.1298 10.8321 20.7794 10.8315 20.1251 10.8323C19.4764 10.8332 19.1259 10.8349 18.9197 10.846C18.7116 10.8572 18.6434 10.8783 18.5626 10.9209L18.5859 10.9651L18.5625 10.9209C18.4658 10.972 18.3802 11.063 18.3189 11.1652C18.2576 11.2674 18.2176 11.3861 18.2176 11.4961C18.2176 11.6091 18.2575 11.728 18.3202 11.8302C18.383 11.9324 18.471 12.022 18.5719 12.0735ZM12.6805 19.91C12.6805 20.1369 12.6598 20.2918 12.6127 20.4039C12.5668 20.513 12.4943 20.585 12.3807 20.643C12.2493 20.71 12.1673 20.7201 11.5 20.7201C10.8327 20.7201 10.7507 20.71 10.6193 20.643C10.5057 20.585 10.4332 20.513 10.3873 20.4039C10.3402 20.2918 10.3195 20.1369 10.3195 19.91V19.5891H11.5H12.6805V19.91Z" fill="white" stroke="white" stroke-width="0.1"/>
</svg>
