<svg width="20" height="20" viewBox="0 0 20 20" fill="none" xmlns="http://www.w3.org/2000/svg">
<path fill-rule="evenodd" clip-rule="evenodd" d="M9.74609 0.0614613C9.60738 0.13559 0.371133 5.91945 0.246797 6.00999C0.121836 6.101 -3.90625e-05 6.33699 0.00015625 6.48771C0.0003125 6.63311 0.122266 6.8607 0.248633 6.95131C0.293555 6.98355 0.761367 7.27905 1.2882 7.608C1.81504 7.93695 2.25047 8.2183 2.25582 8.23323C2.26117 8.24815 1.90082 8.48785 1.45504 8.76588C0.191562 9.55386 0.140586 9.58981 0.0666797 9.74483C-0.0227344 9.9324 -0.0171094 10.1075 0.0835938 10.2728C0.186328 10.4415 0.131367 10.4026 1.2882 11.1249C1.81504 11.4539 2.25047 11.7352 2.25582 11.7501C2.26117 11.7651 1.90082 12.0048 1.45504 12.2828C0.191562 13.0708 0.140586 13.1067 0.0666797 13.2617C0.03 13.3387 0 13.4558 0 13.522C0 13.6631 0.125391 13.9002 0.246797 13.9886C0.393008 14.0951 9.62191 19.8712 9.75391 19.9389C9.91297 20.0204 10.087 20.0204 10.2461 19.9389C10.3781 19.8712 19.607 14.0951 19.7532 13.9886C19.8746 13.9002 20 13.6631 20 13.522C20 13.4558 19.97 13.3387 19.9333 13.2617C19.8594 13.1067 19.8084 13.0708 18.545 12.2828C18.0992 12.0048 17.7388 11.7651 17.7442 11.7501C17.7495 11.7352 18.185 11.4539 18.7118 11.1249C19.8686 10.4026 19.8137 10.4415 19.9164 10.2728C20.0171 10.1075 20.0227 9.9324 19.9333 9.74483C19.8594 9.58981 19.8084 9.55386 18.545 8.76588C18.0992 8.48785 17.7388 8.24815 17.7442 8.23323C17.7495 8.2183 18.185 7.93695 18.7118 7.608C19.2386 7.27905 19.7064 6.98355 19.7514 6.95131C19.8777 6.8607 19.9997 6.63311 19.9998 6.48771C20 6.33699 19.8782 6.101 19.7532 6.00999C19.607 5.90351 10.3781 0.127384 10.2461 0.0597029C10.0895 -0.0205216 9.89816 -0.0198573 9.74609 0.0614613ZM14.1781 3.8918C16.4346 5.30587 18.2806 6.47165 18.2804 6.48239C18.2795 6.51928 10.0586 11.6178 10 11.6178C9.94141 11.6178 1.72055 6.51928 1.71961 6.48239C1.71855 6.4391 9.98391 1.28632 10.0279 1.30289C10.054 1.3127 11.9216 2.47773 14.1781 3.8918ZM6.50988 10.8627C8.20387 11.9179 9.65508 12.8147 9.73477 12.8556C9.9343 12.9581 10.1023 12.9479 10.332 12.8193C10.4395 12.7592 11.8633 11.8776 13.4961 10.8603C15.1289 9.84291 16.4935 8.99264 16.5286 8.97088C16.579 8.9395 16.7689 9.04071 17.4368 9.45477C17.9013 9.74272 18.2809 9.98746 18.2805 9.9986C18.279 10.0362 10.0591 15.1347 10 15.1347C9.94098 15.1347 1.72102 10.0362 1.71953 9.99871C1.71863 9.97597 3.36484 8.94657 3.40441 8.94517C3.41844 8.94466 4.8159 9.80755 6.50988 10.8627ZM6.50988 14.3796C8.20387 15.4348 9.65508 16.3316 9.73477 16.3725C9.9343 16.475 10.1023 16.4648 10.332 16.3363C10.4395 16.2762 11.8633 15.3945 13.4961 14.3772C15.1289 13.3598 16.4937 12.5095 16.529 12.4875C16.5799 12.4558 16.7666 12.5555 17.4366 12.9721C17.9005 13.2606 18.2803 13.5055 18.2805 13.5162C18.2814 13.5526 10.059 18.69 10 18.69C9.94094 18.69 1.71859 13.5525 1.71949 13.5162C1.72004 13.4933 3.36668 12.4629 3.40441 12.4619C3.41844 12.4614 4.8159 13.3245 6.50988 14.3796Z" fill="white"/>
</svg>
