<svg width="39" height="40" viewBox="0 0 39 40" fill="none" xmlns="http://www.w3.org/2000/svg">
<path d="M1.5 19.7723V19.772C1.50093 15.0048 3.395 10.4331 6.76577 7.06206L1.5 19.7723ZM1.5 19.7723C1.5 24.5381 3.3958 29.1131 6.76621 32.483M1.5 19.7723L6.76621 32.483M32.1846 32.483C32.1848 32.4828 32.1849 32.4827 32.1851 32.4825C35.5552 29.1127 37.4508 24.5379 37.4508 19.7723C37.4508 15.0067 35.5552 10.4319 32.1851 7.06206C28.8169 3.69169 24.2416 1.79688 19.4754 1.79688C14.7093 1.79688 10.1342 3.69156 6.7661 7.06173L7.82678 31.4222C10.9133 34.5108 15.1069 36.2477 19.4754 36.2477C23.844 36.2477 28.0375 34.5108 31.124 31.4222L32.1846 32.483ZM32.1846 32.483C28.8165 35.853 24.2414 37.7477 19.4754 37.7477C14.7094 37.7477 10.1343 35.853 6.76621 32.483M32.1846 32.483H6.76621" fill="url(#paint0_linear_281_37)" stroke="white" stroke-width="3"/>
<g clip-path="url(#clip0_281_37)">
<path d="M18.0243 10.0028C16.4995 10.0212 13.2214 10.2717 11.3879 11.9538C10.0241 13.3052 9.54791 15.3032 9.49209 17.7738C9.44578 20.2355 9.38997 24.8584 13.8461 26.1171V28.0344C13.8461 28.0344 13.8182 28.8015 14.3252 28.9588C14.9498 29.1565 15.3055 28.5664 15.8993 27.9322L17.0066 26.68C20.0555 26.9335 22.3907 26.3493 22.6597 26.2626C23.2784 26.0649 26.7631 25.6196 27.3325 20.996C27.9168 16.2211 27.0481 13.2126 25.48 11.8517H25.4705C24.9973 11.4159 23.0955 10.0301 18.8466 10.0146C18.8466 10.0146 18.5313 9.99326 18.0243 10.0022V10.0028ZM18.0765 11.3452C18.5094 11.3423 18.7724 11.3607 18.7724 11.3607C22.3688 11.3702 24.0853 12.4526 24.4902 12.8171C25.8107 13.9488 26.4912 16.6611 25.993 20.6475C25.5198 24.5128 22.6935 24.7575 22.1704 24.9243C21.9478 24.9955 19.891 25.5026 17.2999 25.3358C17.2999 25.3358 15.3702 27.6645 14.767 28.2641C14.6714 28.3692 14.5598 28.4001 14.4885 28.3847C14.3864 28.3597 14.3555 28.2333 14.3614 28.0599L14.3798 24.878C10.6006 23.833 10.8233 19.8899 10.8637 17.8302C10.91 15.7705 11.2965 14.0854 12.4472 12.9442C13.9963 11.5435 16.7798 11.3547 18.0753 11.3452H18.0765ZM18.3615 13.4044C18.3304 13.404 18.2996 13.4099 18.2707 13.4216C18.2419 13.4332 18.2157 13.4505 18.1935 13.4723C18.1714 13.4942 18.1538 13.5202 18.1418 13.5489C18.1297 13.5776 18.1235 13.6084 18.1234 13.6395C18.1234 13.7725 18.2315 13.8776 18.3615 13.8776C18.9502 13.8664 19.5353 13.9718 20.0831 14.1879C20.6308 14.4039 21.1304 14.7263 21.5529 15.1363C22.4157 15.9741 22.836 17.0999 22.8521 18.5718C22.8521 18.7018 22.9572 18.8099 23.0902 18.8099V18.8004C23.1528 18.8005 23.213 18.7759 23.2576 18.7318C23.3022 18.6878 23.3276 18.6279 23.3283 18.5652C23.3571 17.8724 23.2447 17.181 22.998 16.5329C22.7513 15.8849 22.3754 15.2938 21.8932 14.7955C20.9533 13.877 19.7622 13.4038 18.3615 13.4038V13.4044ZM15.2319 13.9488C15.0638 13.9243 14.8924 13.958 14.7462 14.0444H14.7337C14.3943 14.2434 14.0884 14.4949 13.8277 14.7896C13.6109 15.0401 13.4934 15.2937 13.4625 15.5377C13.4441 15.6832 13.4566 15.8286 13.4999 15.9676L13.5153 15.9771C13.7594 16.6943 14.0782 17.3843 14.4677 18.0338C14.9695 18.9464 15.5869 19.7904 16.3048 20.5448L16.3262 20.5757L16.36 20.6006L16.3814 20.6255L16.4063 20.6469C17.1635 21.3669 18.0095 21.9872 18.9238 22.4929C19.9688 23.0617 20.6029 23.3307 20.9835 23.4423V23.4482C21.0952 23.4821 21.1967 23.4975 21.2988 23.4975C21.6232 23.4737 21.9302 23.3421 22.171 23.1235C22.4644 22.8626 22.7131 22.5555 22.9073 22.2144V22.2085C23.0896 21.8653 23.0278 21.5405 22.7648 21.3208C22.238 20.8604 21.6684 20.4514 21.0637 20.0995C20.6587 19.8798 20.2473 20.0128 20.0804 20.2355L19.7248 20.6837C19.5425 20.9064 19.2112 20.8755 19.2112 20.8755L19.2017 20.8815C16.7311 20.2503 16.072 17.7488 16.072 17.7488C16.072 17.7488 16.0412 17.4086 16.2698 17.2352L16.7151 16.8766C16.9282 16.7032 17.0767 16.2924 16.8481 15.8868C16.4986 15.2813 16.0905 14.7115 15.6297 14.1857C15.5289 14.0618 15.3876 13.9774 15.2307 13.9476L15.2319 13.9488ZM18.7724 14.6542C18.4571 14.6542 18.4571 15.1304 18.7754 15.1304C19.1674 15.1367 19.5544 15.2203 19.9141 15.3763C20.2738 15.5323 20.5993 15.7576 20.8719 16.0394C21.1206 16.3137 21.3117 16.6352 21.4339 16.9847C21.556 17.3342 21.6068 17.7047 21.5832 18.0742C21.5843 18.1367 21.6098 18.1964 21.6543 18.2403C21.6988 18.2842 21.7588 18.309 21.8213 18.3093L21.8308 18.3218C21.8938 18.3213 21.9541 18.2961 21.9987 18.2515C22.0432 18.207 22.0684 18.1467 22.0689 18.0837C22.0903 17.1402 21.797 16.3488 21.2216 15.7146C20.6433 15.0805 19.8364 14.7249 18.8063 14.6542H18.7724V14.6542ZM19.1625 15.9343C18.8377 15.9248 18.8253 16.4105 19.1471 16.42C19.9296 16.4604 20.3096 16.8558 20.3595 17.6693C20.3606 17.731 20.3858 17.7899 20.4297 17.8333C20.4737 17.8767 20.5329 17.9011 20.5946 17.9014H20.6041C20.6359 17.9001 20.667 17.8924 20.6958 17.8789C20.7245 17.8653 20.7503 17.8462 20.7716 17.8226C20.7929 17.799 20.8092 17.7714 20.8197 17.7414C20.8302 17.7114 20.8346 17.6796 20.8327 17.6479C20.7769 16.5875 20.1986 15.9901 19.172 15.9349H19.1625V15.9343Z" fill="white"/>
</g>
<defs>
<linearGradient id="paint0_linear_281_37" x1="19.4754" y1="3.29688" x2="19.4754" y2="36.2477" gradientUnits="userSpaceOnUse">
<stop stop-color="#AD72DC"/>
<stop offset="1" stop-color="#7D51A0"/>
</linearGradient>
<clipPath id="clip0_281_37">
<rect width="19" height="19" fill="white" transform="translate(9 10)"/>
</clipPath>
</defs>
</svg>
