<svg width="39" height="40" viewBox="0 0 39 40" fill="none" xmlns="http://www.w3.org/2000/svg">
<g clip-path="url(#clip0_281_33)">
<path d="M1.3783 19.5351C1.3774 22.8574 2.22795 26.1012 3.84524 28.9605L1.22363 38.7295L11.0193 36.1082C13.7286 37.6135 16.7643 38.4023 19.8491 38.4025H19.8572C30.0407 38.4025 38.3304 29.9452 38.3347 19.55C38.3367 14.5128 36.4164 9.77618 32.9274 6.21259C29.439 2.6493 24.7996 0.685893 19.8564 0.683594C9.6717 0.683594 1.38266 9.14046 1.37845 19.5351" fill="url(#paint0_linear_281_33)"/>
<path d="M0.718295 19.5277C0.717244 22.9695 1.59827 26.3294 3.27323 29.291L0.557617 39.4103L10.7045 36.695C13.5003 38.2507 16.6481 39.0709 19.8512 39.0722H19.8594C30.4083 39.0722 38.9957 30.3106 39.0002 19.5434C39.002 14.3252 37.0126 9.41826 33.399 5.72701C29.785 2.03621 24.9796 0.00214563 19.8594 0C9.30872 0 0.72265 8.76032 0.718446 19.5277H0.718295ZM6.761 28.7809L6.38212 28.1671C4.78946 25.5826 3.94883 22.5958 3.95003 19.529C3.95348 10.5794 11.09 3.29815 19.8654 3.29815C24.1151 3.29999 28.109 4.99075 31.1129 8.05839C34.1167 11.1263 35.7696 15.2046 35.7685 19.5421C35.7646 28.4917 28.6279 35.7739 19.8594 35.7739H19.8531C16.998 35.7723 14.1978 34.9898 11.7558 33.511L11.1747 33.1593L5.15331 34.7705L6.761 28.7808V28.7809Z" fill="url(#paint1_linear_281_33)"/>
<path d="M15.0758 11.3626C14.7175 10.5498 14.3404 10.5334 13.9997 10.5192C13.7207 10.5069 13.4017 10.5078 13.0831 10.5078C12.7641 10.5078 12.2459 10.6303 11.8078 11.1184C11.3694 11.607 10.1338 12.7877 10.1338 15.1891C10.1338 17.5907 11.8476 19.9115 12.0866 20.2375C12.3258 20.5629 15.3952 25.6487 20.2564 27.6052C24.2964 29.2311 25.1186 28.9077 25.9954 28.8262C26.8724 28.745 28.8252 27.6458 29.2236 26.506C29.6222 25.3663 29.6222 24.3895 29.5027 24.1853C29.3832 23.982 29.0642 23.8598 28.5859 23.6158C28.1075 23.3717 25.7562 22.1908 25.3179 22.0279C24.8794 21.8651 24.5606 21.7839 24.2416 22.2727C23.9227 22.7606 23.0068 23.8598 22.7277 24.1853C22.4488 24.5116 22.1696 24.5522 21.6915 24.3081C21.2129 24.0632 19.6727 23.5484 17.8453 21.8857C16.4235 20.5919 15.4636 18.9941 15.1846 18.5054C14.9056 18.0174 15.1548 17.7529 15.3946 17.5096C15.6095 17.2909 15.873 16.9397 16.1124 16.6548C16.3508 16.3697 16.4304 16.1663 16.5899 15.8408C16.7495 15.515 16.6696 15.2299 16.5503 14.9858C16.4304 14.7416 15.501 12.3278 15.0758 11.3627" fill="white"/>
</g>
<defs>
<linearGradient id="paint0_linear_281_33" x1="19.7792" y1="38.7295" x2="19.7792" y2="0.683594" gradientUnits="userSpaceOnUse">
<stop stop-color="#1FAF38"/>
<stop offset="1" stop-color="#60D669"/>
</linearGradient>
<linearGradient id="paint1_linear_281_33" x1="19.7789" y1="39.4103" x2="19.7789" y2="0" gradientUnits="userSpaceOnUse">
<stop stop-color="#F9F9F9"/>
<stop offset="1" stop-color="white"/>
</linearGradient>
<clipPath id="clip0_281_33">
<rect width="38.4426" height="39.541" fill="white" transform="translate(0.557617)"/>
</clipPath>
</defs>
</svg>
